%TF.GenerationSoftware,KiCad,Pcbnew,9.0.1*%
%TF.CreationDate,2025-06-05T21:30:58-04:00*%
%TF.ProjectId,TetrisBoard-FULL,54657472-6973-4426-9f61-72642d46554c,rev?*%
%TF.SameCoordinates,Original*%
%TF.FileFunction,Legend,Top*%
%TF.FilePolarity,Positive*%
%FSLAX46Y46*%
G04 Gerber Fmt 4.6, Leading zero omitted, Abs format (unit mm)*
G04 Created by KiCad (PCBNEW 9.0.1) date 2025-06-05 21:30:58*
%MOMM*%
%LPD*%
G01*
G04 APERTURE LIST*
%ADD10C,0.100000*%
%ADD11C,0.000000*%
G04 APERTURE END LIST*
D10*
X110750000Y-125750000D02*
X113250000Y-125750000D01*
X113250000Y-128250000D01*
X110750000Y-128250000D01*
X110750000Y-125750000D01*
X110750000Y-120750000D02*
X113250000Y-120750000D01*
X113250000Y-123250000D01*
X110750000Y-123250000D01*
X110750000Y-120750000D01*
X175500000Y-49500000D02*
X174500000Y-49500000D01*
X156000000Y-39750000D02*
X158500000Y-39750000D01*
X158500000Y-42250000D01*
X156000000Y-42250000D01*
X156000000Y-39750000D01*
X193000000Y-56000000D02*
X195500000Y-56000000D01*
X195500000Y-58500000D01*
X193000000Y-58500000D01*
X193000000Y-56000000D01*
X121000000Y-42250000D02*
X123500000Y-42250000D01*
X123500000Y-44750000D01*
X121000000Y-44750000D01*
X121000000Y-42250000D01*
X167750000Y-80750000D02*
X170250000Y-80750000D01*
X170250000Y-83250000D01*
X167750000Y-83250000D01*
X167750000Y-80750000D01*
X193000000Y-63500000D02*
X195500000Y-63500000D01*
X195500000Y-66000000D01*
X193000000Y-66000000D01*
X193000000Y-63500000D01*
X131000000Y-39750000D02*
X133500000Y-39750000D01*
X133500000Y-42250000D01*
X131000000Y-42250000D01*
X131000000Y-39750000D01*
X195500000Y-66000000D02*
X211500000Y-66000000D01*
X223750000Y-70000000D02*
X226250000Y-70000000D01*
X226250000Y-72500000D01*
X223750000Y-72500000D01*
X223750000Y-70000000D01*
X175500000Y-48500000D02*
X181500000Y-48500000D01*
X181500000Y-50500000D01*
X175500000Y-50500000D01*
X175500000Y-48500000D01*
X167750000Y-122250000D02*
X170250000Y-122250000D01*
X170250000Y-124750000D01*
X167750000Y-124750000D01*
X167750000Y-122250000D01*
X110750000Y-133250000D02*
X113250000Y-133250000D01*
X113250000Y-135750000D01*
X110750000Y-135750000D01*
X110750000Y-133250000D01*
X115500000Y-38000000D02*
X116500000Y-38000000D01*
X193000000Y-58500000D02*
X195500000Y-58500000D01*
X195500000Y-61000000D01*
X193000000Y-61000000D01*
X193000000Y-58500000D01*
X146000000Y-42250000D02*
X148500000Y-42250000D01*
X148500000Y-44750000D01*
X146000000Y-44750000D01*
X146000000Y-42250000D01*
X193000000Y-46000000D02*
X195500000Y-46000000D01*
X195500000Y-48500000D01*
X193000000Y-48500000D01*
X193000000Y-46000000D01*
X110750000Y-79250000D02*
X113250000Y-79250000D01*
X113250000Y-81750000D01*
X110750000Y-81750000D01*
X110750000Y-79250000D01*
X167750000Y-90250000D02*
X170250000Y-90250000D01*
X170250000Y-92750000D01*
X167750000Y-92750000D01*
X167750000Y-90250000D01*
X167750000Y-127250000D02*
X170250000Y-127250000D01*
X170250000Y-129750000D01*
X167750000Y-129750000D01*
X167750000Y-127250000D01*
X110750000Y-138250000D02*
X113250000Y-138250000D01*
X113250000Y-140750000D01*
X110750000Y-140750000D01*
X110750000Y-138250000D01*
X193000000Y-53500000D02*
X195500000Y-53500000D01*
X195500000Y-56000000D01*
X193000000Y-56000000D01*
X193000000Y-53500000D01*
X123500000Y-39750000D02*
X126000000Y-39750000D01*
X126000000Y-42250000D01*
X123500000Y-42250000D01*
X123500000Y-39750000D01*
X110750000Y-66750000D02*
X113250000Y-66750000D01*
X113250000Y-69250000D01*
X110750000Y-69250000D01*
X110750000Y-66750000D01*
X181500000Y-49500000D02*
X182500000Y-49500000D01*
X143500000Y-42250000D02*
X146000000Y-42250000D01*
X146000000Y-44750000D01*
X143500000Y-44750000D01*
X143500000Y-42250000D01*
X211500000Y-46000000D02*
X214000000Y-46000000D01*
X214000000Y-48500000D01*
X211500000Y-48500000D01*
X211500000Y-46000000D01*
X141000000Y-42250000D02*
X143500000Y-42250000D01*
X143500000Y-44750000D01*
X141000000Y-44750000D01*
X141000000Y-42250000D01*
X193000000Y-48500000D02*
X195500000Y-48500000D01*
X195500000Y-51000000D01*
X193000000Y-51000000D01*
X193000000Y-48500000D01*
X110750000Y-135750000D02*
X113250000Y-135750000D01*
X113250000Y-138250000D01*
X110750000Y-138250000D01*
X110750000Y-135750000D01*
X175500000Y-51500000D02*
X181500000Y-51500000D01*
X181500000Y-53500000D01*
X175500000Y-53500000D01*
X175500000Y-51500000D01*
X108500000Y-38000000D02*
X109500000Y-38000000D01*
X158500000Y-39750000D02*
X161000000Y-39750000D01*
X161000000Y-42250000D01*
X158500000Y-42250000D01*
X158500000Y-39750000D01*
X110750000Y-118250000D02*
X113250000Y-118250000D01*
X113250000Y-120750000D01*
X110750000Y-120750000D01*
X110750000Y-118250000D01*
X167750000Y-92750000D02*
X170250000Y-92750000D01*
X170250000Y-95250000D01*
X167750000Y-95250000D01*
X167750000Y-92750000D01*
X167750000Y-78250000D02*
X170250000Y-78250000D01*
X170250000Y-80750000D01*
X167750000Y-80750000D01*
X167750000Y-78250000D01*
X110750000Y-101250000D02*
X113250000Y-101250000D01*
X113250000Y-103750000D01*
X110750000Y-103750000D01*
X110750000Y-101250000D01*
X221250000Y-70000000D02*
X223750000Y-70000000D01*
X223750000Y-72500000D01*
X221250000Y-72500000D01*
X221250000Y-70000000D01*
X167750000Y-83250000D02*
X170250000Y-83250000D01*
X170250000Y-85750000D01*
X167750000Y-85750000D01*
X167750000Y-83250000D01*
X167750000Y-132250000D02*
X170250000Y-132250000D01*
X170250000Y-134750000D01*
X167750000Y-134750000D01*
X167750000Y-132250000D01*
X211500000Y-53500000D02*
X214000000Y-53500000D01*
X214000000Y-56000000D01*
X211500000Y-56000000D01*
X211500000Y-53500000D01*
X136000000Y-42250000D02*
X138500000Y-42250000D01*
X138500000Y-44750000D01*
X136000000Y-44750000D01*
X136000000Y-42250000D01*
X141000000Y-39750000D02*
X143500000Y-39750000D01*
X143500000Y-42250000D01*
X141000000Y-42250000D01*
X141000000Y-39750000D01*
X167750000Y-102750000D02*
X170250000Y-102750000D01*
X170250000Y-105250000D01*
X167750000Y-105250000D01*
X167750000Y-102750000D01*
X115500000Y-41000000D02*
X116500000Y-41000000D01*
X211500000Y-63500000D02*
X214000000Y-63500000D01*
X214000000Y-66000000D01*
X211500000Y-66000000D01*
X211500000Y-63500000D01*
X110750000Y-115750000D02*
X113250000Y-115750000D01*
X113250000Y-118250000D01*
X110750000Y-118250000D01*
X110750000Y-115750000D01*
X148500000Y-39750000D02*
X151000000Y-39750000D01*
X151000000Y-42250000D01*
X148500000Y-42250000D01*
X148500000Y-39750000D01*
X167750000Y-114750000D02*
X170250000Y-114750000D01*
X170250000Y-117250000D01*
X167750000Y-117250000D01*
X167750000Y-114750000D01*
X211500000Y-58500000D02*
X214000000Y-58500000D01*
X214000000Y-61000000D01*
X211500000Y-61000000D01*
X211500000Y-58500000D01*
X123500000Y-42250000D02*
X126000000Y-42250000D01*
X126000000Y-44750000D01*
X123500000Y-44750000D01*
X123500000Y-42250000D01*
X153500000Y-42250000D02*
X156000000Y-42250000D01*
X156000000Y-44750000D01*
X153500000Y-44750000D01*
X153500000Y-42250000D01*
X110750000Y-74250000D02*
X113250000Y-74250000D01*
X113250000Y-76750000D01*
X110750000Y-76750000D01*
X110750000Y-74250000D01*
X128500000Y-39750000D02*
X131000000Y-39750000D01*
X131000000Y-42250000D01*
X128500000Y-42250000D01*
X128500000Y-39750000D01*
X167750000Y-73250000D02*
X170250000Y-73250000D01*
X170250000Y-75750000D01*
X167750000Y-75750000D01*
X167750000Y-73250000D01*
X108500000Y-41000000D02*
X109500000Y-41000000D01*
X151000000Y-42250000D02*
X153500000Y-42250000D01*
X153500000Y-44750000D01*
X151000000Y-44750000D01*
X151000000Y-42250000D01*
X110750000Y-93750000D02*
X113250000Y-93750000D01*
X113250000Y-96250000D01*
X110750000Y-96250000D01*
X110750000Y-93750000D01*
X182500000Y-52500000D02*
X181500000Y-52500000D01*
X156000000Y-42250000D02*
X158500000Y-42250000D01*
X158500000Y-44750000D01*
X156000000Y-44750000D01*
X156000000Y-42250000D01*
X131000000Y-42250000D02*
X133500000Y-42250000D01*
X133500000Y-44750000D01*
X131000000Y-44750000D01*
X131000000Y-42250000D01*
X146000000Y-39750000D02*
X148500000Y-39750000D01*
X148500000Y-42250000D01*
X146000000Y-42250000D01*
X146000000Y-39750000D01*
X167750000Y-70750000D02*
X170250000Y-70750000D01*
X170250000Y-73250000D01*
X167750000Y-73250000D01*
X167750000Y-70750000D01*
X153500000Y-39750000D02*
X156000000Y-39750000D01*
X156000000Y-42250000D01*
X153500000Y-42250000D01*
X153500000Y-39750000D01*
X118500000Y-42250000D02*
X121000000Y-42250000D01*
X121000000Y-44750000D01*
X118500000Y-44750000D01*
X118500000Y-42250000D01*
X110750000Y-69250000D02*
X113250000Y-69250000D01*
X113250000Y-71750000D01*
X110750000Y-71750000D01*
X110750000Y-69250000D01*
X161000000Y-42250000D02*
X163500000Y-42250000D01*
X163500000Y-44750000D01*
X161000000Y-44750000D01*
X161000000Y-42250000D01*
X114000000Y-46000000D02*
X167000000Y-46000000D01*
X167000000Y-145000000D01*
X114000000Y-145000000D01*
X114000000Y-46000000D01*
X138500000Y-39750000D02*
X141000000Y-39750000D01*
X141000000Y-42250000D01*
X138500000Y-42250000D01*
X138500000Y-39750000D01*
X167750000Y-65750000D02*
X170250000Y-65750000D01*
X170250000Y-68250000D01*
X167750000Y-68250000D01*
X167750000Y-65750000D01*
X110750000Y-108750000D02*
X113250000Y-108750000D01*
X113250000Y-111250000D01*
X110750000Y-111250000D01*
X110750000Y-108750000D01*
X110750000Y-91250000D02*
X113250000Y-91250000D01*
X113250000Y-93750000D01*
X110750000Y-93750000D01*
X110750000Y-91250000D01*
X167750000Y-75750000D02*
X170250000Y-75750000D01*
X170250000Y-78250000D01*
X167750000Y-78250000D01*
X167750000Y-75750000D01*
X167750000Y-100250000D02*
X170250000Y-100250000D01*
X170250000Y-102750000D01*
X167750000Y-102750000D01*
X167750000Y-100250000D01*
X128500000Y-42250000D02*
X131000000Y-42250000D01*
X131000000Y-44750000D01*
X128500000Y-44750000D01*
X128500000Y-42250000D01*
X110750000Y-71750000D02*
X113250000Y-71750000D01*
X113250000Y-74250000D01*
X110750000Y-74250000D01*
X110750000Y-71750000D01*
X109500000Y-40000000D02*
X115500000Y-40000000D01*
X115500000Y-42000000D01*
X109500000Y-42000000D01*
X109500000Y-40000000D01*
X167750000Y-124750000D02*
X170250000Y-124750000D01*
X170250000Y-127250000D01*
X167750000Y-127250000D01*
X167750000Y-124750000D01*
X143500000Y-39750000D02*
X146000000Y-39750000D01*
X146000000Y-42250000D01*
X143500000Y-42250000D01*
X143500000Y-39750000D01*
X110750000Y-123250000D02*
X113250000Y-123250000D01*
X113250000Y-125750000D01*
X110750000Y-125750000D01*
X110750000Y-123250000D01*
X158500000Y-42250000D02*
X161000000Y-42250000D01*
X161000000Y-44750000D01*
X158500000Y-44750000D01*
X158500000Y-42250000D01*
X110750000Y-98750000D02*
X113250000Y-98750000D01*
X113250000Y-101250000D01*
X110750000Y-101250000D01*
X110750000Y-98750000D01*
X167750000Y-117250000D02*
X170250000Y-117250000D01*
X170250000Y-119750000D01*
X167750000Y-119750000D01*
X167750000Y-117250000D01*
X175500000Y-52500000D02*
X174500000Y-52500000D01*
X133500000Y-39750000D02*
X136000000Y-39750000D01*
X136000000Y-42250000D01*
X133500000Y-42250000D01*
X133500000Y-39750000D01*
X109500000Y-37000000D02*
X115500000Y-37000000D01*
X115500000Y-39000000D01*
X109500000Y-39000000D01*
X109500000Y-37000000D01*
X211500000Y-61000000D02*
X214000000Y-61000000D01*
X214000000Y-63500000D01*
X211500000Y-63500000D01*
X211500000Y-61000000D01*
X167750000Y-97750000D02*
X170250000Y-97750000D01*
X170250000Y-100250000D01*
X167750000Y-100250000D01*
X167750000Y-97750000D01*
X126000000Y-39750000D02*
X128500000Y-39750000D01*
X128500000Y-42250000D01*
X126000000Y-42250000D01*
X126000000Y-39750000D01*
X110750000Y-64250000D02*
X113250000Y-64250000D01*
X113250000Y-66750000D01*
X110750000Y-66750000D01*
X110750000Y-64250000D01*
X193000000Y-61000000D02*
X195500000Y-61000000D01*
X195500000Y-63500000D01*
X193000000Y-63500000D01*
X193000000Y-61000000D01*
X218750000Y-72500000D02*
X221250000Y-72500000D01*
X221250000Y-75000000D01*
X218750000Y-75000000D01*
X218750000Y-72500000D01*
X167750000Y-95250000D02*
X170250000Y-95250000D01*
X170250000Y-97750000D01*
X167750000Y-97750000D01*
X167750000Y-95250000D01*
X167750000Y-129750000D02*
X170250000Y-129750000D01*
X170250000Y-132250000D01*
X167750000Y-132250000D01*
X167750000Y-129750000D01*
X167750000Y-87750000D02*
X170250000Y-87750000D01*
X170250000Y-90250000D01*
X167750000Y-90250000D01*
X167750000Y-87750000D01*
X221250000Y-72500000D02*
X223750000Y-72500000D01*
X223750000Y-75000000D01*
X221250000Y-75000000D01*
X221250000Y-72500000D01*
X211500000Y-51000000D02*
X214000000Y-51000000D01*
X214000000Y-53500000D01*
X211500000Y-53500000D01*
X211500000Y-51000000D01*
X218750000Y-70000000D02*
X221250000Y-70000000D01*
X221250000Y-72500000D01*
X218750000Y-72500000D01*
X218750000Y-70000000D01*
X110750000Y-88750000D02*
X113250000Y-88750000D01*
X113250000Y-91250000D01*
X110750000Y-91250000D01*
X110750000Y-88750000D01*
X110750000Y-103750000D02*
X113250000Y-103750000D01*
X113250000Y-106250000D01*
X110750000Y-106250000D01*
X110750000Y-103750000D01*
X136000000Y-39750000D02*
X138500000Y-39750000D01*
X138500000Y-42250000D01*
X136000000Y-42250000D01*
X136000000Y-39750000D01*
X110750000Y-128250000D02*
X113250000Y-128250000D01*
X113250000Y-130750000D01*
X110750000Y-130750000D01*
X110750000Y-128250000D01*
X211500000Y-48500000D02*
X214000000Y-48500000D01*
X214000000Y-51000000D01*
X211500000Y-51000000D01*
X211500000Y-48500000D01*
X121000000Y-39750000D02*
X123500000Y-39750000D01*
X123500000Y-42250000D01*
X121000000Y-42250000D01*
X121000000Y-39750000D01*
X118500000Y-39750000D02*
X121000000Y-39750000D01*
X121000000Y-42250000D01*
X118500000Y-42250000D01*
X118500000Y-39750000D01*
X110750000Y-84250000D02*
X113250000Y-84250000D01*
X113250000Y-86750000D01*
X110750000Y-86750000D01*
X110750000Y-84250000D01*
X167750000Y-107750000D02*
X170250000Y-107750000D01*
X170250000Y-110250000D01*
X167750000Y-110250000D01*
X167750000Y-107750000D01*
X223750000Y-72500000D02*
X226250000Y-72500000D01*
X226250000Y-75000000D01*
X223750000Y-75000000D01*
X223750000Y-72500000D01*
X167750000Y-119750000D02*
X170250000Y-119750000D01*
X170250000Y-122250000D01*
X167750000Y-122250000D01*
X167750000Y-119750000D01*
X193000000Y-51000000D02*
X195500000Y-51000000D01*
X195500000Y-53500000D01*
X193000000Y-53500000D01*
X193000000Y-51000000D01*
X133500000Y-42250000D02*
X136000000Y-42250000D01*
X136000000Y-44750000D01*
X133500000Y-44750000D01*
X133500000Y-42250000D01*
X138500000Y-42250000D02*
X141000000Y-42250000D01*
X141000000Y-44750000D01*
X138500000Y-44750000D01*
X138500000Y-42250000D01*
X151000000Y-39750000D02*
X153500000Y-39750000D01*
X153500000Y-42250000D01*
X151000000Y-42250000D01*
X151000000Y-39750000D01*
X110750000Y-106250000D02*
X113250000Y-106250000D01*
X113250000Y-108750000D01*
X110750000Y-108750000D01*
X110750000Y-106250000D01*
X161000000Y-39750000D02*
X163500000Y-39750000D01*
X163500000Y-42250000D01*
X161000000Y-42250000D01*
X161000000Y-39750000D01*
X167750000Y-105250000D02*
X170250000Y-105250000D01*
X170250000Y-107750000D01*
X167750000Y-107750000D01*
X167750000Y-105250000D01*
X110750000Y-96250000D02*
X113250000Y-96250000D01*
X113250000Y-98750000D01*
X110750000Y-98750000D01*
X110750000Y-96250000D01*
X211500000Y-56000000D02*
X214000000Y-56000000D01*
X214000000Y-58500000D01*
X211500000Y-58500000D01*
X211500000Y-56000000D01*
X167750000Y-63250000D02*
X170250000Y-63250000D01*
X170250000Y-65750000D01*
X167750000Y-65750000D01*
X167750000Y-63250000D01*
X110750000Y-76750000D02*
X113250000Y-76750000D01*
X113250000Y-79250000D01*
X110750000Y-79250000D01*
X110750000Y-76750000D01*
X148500000Y-42250000D02*
X151000000Y-42250000D01*
X151000000Y-44750000D01*
X148500000Y-44750000D01*
X148500000Y-42250000D01*
X110750000Y-111250000D02*
X113250000Y-111250000D01*
X113250000Y-113750000D01*
X110750000Y-113750000D01*
X110750000Y-111250000D01*
X110750000Y-130750000D02*
X113250000Y-130750000D01*
X113250000Y-133250000D01*
X110750000Y-133250000D01*
X110750000Y-130750000D01*
X110750000Y-81750000D02*
X113250000Y-81750000D01*
X113250000Y-84250000D01*
X110750000Y-84250000D01*
X110750000Y-81750000D01*
X167750000Y-68250000D02*
X170250000Y-68250000D01*
X170250000Y-70750000D01*
X167750000Y-70750000D01*
X167750000Y-68250000D01*
X195500000Y-46000000D02*
X211500000Y-46000000D01*
X126000000Y-42250000D02*
X128500000Y-42250000D01*
X128500000Y-44750000D01*
X126000000Y-44750000D01*
X126000000Y-42250000D01*
X185827693Y-145372419D02*
X185256265Y-145372419D01*
X185541979Y-145372419D02*
X185541979Y-144372419D01*
X185541979Y-144372419D02*
X185446741Y-144515276D01*
X185446741Y-144515276D02*
X185351503Y-144610514D01*
X185351503Y-144610514D02*
X185256265Y-144658133D01*
X186446741Y-144372419D02*
X186541979Y-144372419D01*
X186541979Y-144372419D02*
X186637217Y-144420038D01*
X186637217Y-144420038D02*
X186684836Y-144467657D01*
X186684836Y-144467657D02*
X186732455Y-144562895D01*
X186732455Y-144562895D02*
X186780074Y-144753371D01*
X186780074Y-144753371D02*
X186780074Y-144991466D01*
X186780074Y-144991466D02*
X186732455Y-145181942D01*
X186732455Y-145181942D02*
X186684836Y-145277180D01*
X186684836Y-145277180D02*
X186637217Y-145324800D01*
X186637217Y-145324800D02*
X186541979Y-145372419D01*
X186541979Y-145372419D02*
X186446741Y-145372419D01*
X186446741Y-145372419D02*
X186351503Y-145324800D01*
X186351503Y-145324800D02*
X186303884Y-145277180D01*
X186303884Y-145277180D02*
X186256265Y-145181942D01*
X186256265Y-145181942D02*
X186208646Y-144991466D01*
X186208646Y-144991466D02*
X186208646Y-144753371D01*
X186208646Y-144753371D02*
X186256265Y-144562895D01*
X186256265Y-144562895D02*
X186303884Y-144467657D01*
X186303884Y-144467657D02*
X186351503Y-144420038D01*
X186351503Y-144420038D02*
X186446741Y-144372419D01*
X222053884Y-62241466D02*
X222815789Y-62241466D01*
X222434836Y-62622419D02*
X222434836Y-61860514D01*
X167280074Y-37872419D02*
X166803884Y-37872419D01*
X166803884Y-37872419D02*
X166756265Y-38348609D01*
X166756265Y-38348609D02*
X166803884Y-38300990D01*
X166803884Y-38300990D02*
X166899122Y-38253371D01*
X166899122Y-38253371D02*
X167137217Y-38253371D01*
X167137217Y-38253371D02*
X167232455Y-38300990D01*
X167232455Y-38300990D02*
X167280074Y-38348609D01*
X167280074Y-38348609D02*
X167327693Y-38443847D01*
X167327693Y-38443847D02*
X167327693Y-38681942D01*
X167327693Y-38681942D02*
X167280074Y-38777180D01*
X167280074Y-38777180D02*
X167232455Y-38824800D01*
X167232455Y-38824800D02*
X167137217Y-38872419D01*
X167137217Y-38872419D02*
X166899122Y-38872419D01*
X166899122Y-38872419D02*
X166803884Y-38824800D01*
X166803884Y-38824800D02*
X166756265Y-38777180D01*
X167946741Y-37872419D02*
X168041979Y-37872419D01*
X168041979Y-37872419D02*
X168137217Y-37920038D01*
X168137217Y-37920038D02*
X168184836Y-37967657D01*
X168184836Y-37967657D02*
X168232455Y-38062895D01*
X168232455Y-38062895D02*
X168280074Y-38253371D01*
X168280074Y-38253371D02*
X168280074Y-38491466D01*
X168280074Y-38491466D02*
X168232455Y-38681942D01*
X168232455Y-38681942D02*
X168184836Y-38777180D01*
X168184836Y-38777180D02*
X168137217Y-38824800D01*
X168137217Y-38824800D02*
X168041979Y-38872419D01*
X168041979Y-38872419D02*
X167946741Y-38872419D01*
X167946741Y-38872419D02*
X167851503Y-38824800D01*
X167851503Y-38824800D02*
X167803884Y-38777180D01*
X167803884Y-38777180D02*
X167756265Y-38681942D01*
X167756265Y-38681942D02*
X167708646Y-38491466D01*
X167708646Y-38491466D02*
X167708646Y-38253371D01*
X167708646Y-38253371D02*
X167756265Y-38062895D01*
X167756265Y-38062895D02*
X167803884Y-37967657D01*
X167803884Y-37967657D02*
X167851503Y-37920038D01*
X167851503Y-37920038D02*
X167946741Y-37872419D01*
X214161027Y-37152531D02*
X214494360Y-38152531D01*
X214494360Y-38152531D02*
X214827693Y-37152531D01*
X215684836Y-38152531D02*
X215113408Y-38152531D01*
X215399122Y-38152531D02*
X215399122Y-37152531D01*
X215399122Y-37152531D02*
X215303884Y-37295388D01*
X215303884Y-37295388D02*
X215208646Y-37390626D01*
X215208646Y-37390626D02*
X215113408Y-37438245D01*
X216113408Y-37771578D02*
X216875313Y-37771578D01*
X217684836Y-37628721D02*
X217351503Y-37628721D01*
X217351503Y-38152531D02*
X217351503Y-37152531D01*
X217351503Y-37152531D02*
X217827693Y-37152531D01*
X214256265Y-38857713D02*
X214303884Y-38810094D01*
X214303884Y-38810094D02*
X214399122Y-38762475D01*
X214399122Y-38762475D02*
X214637217Y-38762475D01*
X214637217Y-38762475D02*
X214732455Y-38810094D01*
X214732455Y-38810094D02*
X214780074Y-38857713D01*
X214780074Y-38857713D02*
X214827693Y-38952951D01*
X214827693Y-38952951D02*
X214827693Y-39048189D01*
X214827693Y-39048189D02*
X214780074Y-39191046D01*
X214780074Y-39191046D02*
X214208646Y-39762475D01*
X214208646Y-39762475D02*
X214827693Y-39762475D01*
X215256265Y-39381522D02*
X216018170Y-39381522D01*
X216970550Y-39762475D02*
X216494360Y-39762475D01*
X216494360Y-39762475D02*
X216494360Y-38762475D01*
X217732455Y-39762475D02*
X217732455Y-39238665D01*
X217732455Y-39238665D02*
X217684836Y-39143427D01*
X217684836Y-39143427D02*
X217589598Y-39095808D01*
X217589598Y-39095808D02*
X217399122Y-39095808D01*
X217399122Y-39095808D02*
X217303884Y-39143427D01*
X217732455Y-39714856D02*
X217637217Y-39762475D01*
X217637217Y-39762475D02*
X217399122Y-39762475D01*
X217399122Y-39762475D02*
X217303884Y-39714856D01*
X217303884Y-39714856D02*
X217256265Y-39619617D01*
X217256265Y-39619617D02*
X217256265Y-39524379D01*
X217256265Y-39524379D02*
X217303884Y-39429141D01*
X217303884Y-39429141D02*
X217399122Y-39381522D01*
X217399122Y-39381522D02*
X217637217Y-39381522D01*
X217637217Y-39381522D02*
X217732455Y-39333903D01*
X218113408Y-39095808D02*
X218351503Y-39762475D01*
X218589598Y-39095808D02*
X218351503Y-39762475D01*
X218351503Y-39762475D02*
X218256265Y-40000570D01*
X218256265Y-40000570D02*
X218208646Y-40048189D01*
X218208646Y-40048189D02*
X218113408Y-40095808D01*
X219351503Y-39714856D02*
X219256265Y-39762475D01*
X219256265Y-39762475D02*
X219065789Y-39762475D01*
X219065789Y-39762475D02*
X218970551Y-39714856D01*
X218970551Y-39714856D02*
X218922932Y-39619617D01*
X218922932Y-39619617D02*
X218922932Y-39238665D01*
X218922932Y-39238665D02*
X218970551Y-39143427D01*
X218970551Y-39143427D02*
X219065789Y-39095808D01*
X219065789Y-39095808D02*
X219256265Y-39095808D01*
X219256265Y-39095808D02*
X219351503Y-39143427D01*
X219351503Y-39143427D02*
X219399122Y-39238665D01*
X219399122Y-39238665D02*
X219399122Y-39333903D01*
X219399122Y-39333903D02*
X218922932Y-39429141D01*
X219827694Y-39762475D02*
X219827694Y-39095808D01*
X219827694Y-39286284D02*
X219875313Y-39191046D01*
X219875313Y-39191046D02*
X219922932Y-39143427D01*
X219922932Y-39143427D02*
X220018170Y-39095808D01*
X220018170Y-39095808D02*
X220113408Y-39095808D01*
X220399123Y-39714856D02*
X220494361Y-39762475D01*
X220494361Y-39762475D02*
X220684837Y-39762475D01*
X220684837Y-39762475D02*
X220780075Y-39714856D01*
X220780075Y-39714856D02*
X220827694Y-39619617D01*
X220827694Y-39619617D02*
X220827694Y-39571998D01*
X220827694Y-39571998D02*
X220780075Y-39476760D01*
X220780075Y-39476760D02*
X220684837Y-39429141D01*
X220684837Y-39429141D02*
X220541980Y-39429141D01*
X220541980Y-39429141D02*
X220446742Y-39381522D01*
X220446742Y-39381522D02*
X220399123Y-39286284D01*
X220399123Y-39286284D02*
X220399123Y-39238665D01*
X220399123Y-39238665D02*
X220446742Y-39143427D01*
X220446742Y-39143427D02*
X220541980Y-39095808D01*
X220541980Y-39095808D02*
X220684837Y-39095808D01*
X220684837Y-39095808D02*
X220780075Y-39143427D01*
X214827693Y-41372419D02*
X214256265Y-41372419D01*
X214541979Y-41372419D02*
X214541979Y-40372419D01*
X214541979Y-40372419D02*
X214446741Y-40515276D01*
X214446741Y-40515276D02*
X214351503Y-40610514D01*
X214351503Y-40610514D02*
X214256265Y-40658133D01*
X215780074Y-41372419D02*
X215208646Y-41372419D01*
X215494360Y-41372419D02*
X215494360Y-40372419D01*
X215494360Y-40372419D02*
X215399122Y-40515276D01*
X215399122Y-40515276D02*
X215303884Y-40610514D01*
X215303884Y-40610514D02*
X215208646Y-40658133D01*
X216684836Y-40372419D02*
X216208646Y-40372419D01*
X216208646Y-40372419D02*
X216161027Y-40848609D01*
X216161027Y-40848609D02*
X216208646Y-40800990D01*
X216208646Y-40800990D02*
X216303884Y-40753371D01*
X216303884Y-40753371D02*
X216541979Y-40753371D01*
X216541979Y-40753371D02*
X216637217Y-40800990D01*
X216637217Y-40800990D02*
X216684836Y-40848609D01*
X216684836Y-40848609D02*
X216732455Y-40943847D01*
X216732455Y-40943847D02*
X216732455Y-41181942D01*
X216732455Y-41181942D02*
X216684836Y-41277180D01*
X216684836Y-41277180D02*
X216637217Y-41324800D01*
X216637217Y-41324800D02*
X216541979Y-41372419D01*
X216541979Y-41372419D02*
X216303884Y-41372419D01*
X216303884Y-41372419D02*
X216208646Y-41324800D01*
X216208646Y-41324800D02*
X216161027Y-41277180D01*
X217065789Y-41372419D02*
X217589598Y-40705752D01*
X217065789Y-40705752D02*
X217589598Y-41372419D01*
X218494360Y-41372419D02*
X217922932Y-41372419D01*
X218208646Y-41372419D02*
X218208646Y-40372419D01*
X218208646Y-40372419D02*
X218113408Y-40515276D01*
X218113408Y-40515276D02*
X218018170Y-40610514D01*
X218018170Y-40610514D02*
X217922932Y-40658133D01*
X218875313Y-40467657D02*
X218922932Y-40420038D01*
X218922932Y-40420038D02*
X219018170Y-40372419D01*
X219018170Y-40372419D02*
X219256265Y-40372419D01*
X219256265Y-40372419D02*
X219351503Y-40420038D01*
X219351503Y-40420038D02*
X219399122Y-40467657D01*
X219399122Y-40467657D02*
X219446741Y-40562895D01*
X219446741Y-40562895D02*
X219446741Y-40658133D01*
X219446741Y-40658133D02*
X219399122Y-40800990D01*
X219399122Y-40800990D02*
X218827694Y-41372419D01*
X218827694Y-41372419D02*
X219446741Y-41372419D01*
X220351503Y-40372419D02*
X219875313Y-40372419D01*
X219875313Y-40372419D02*
X219827694Y-40848609D01*
X219827694Y-40848609D02*
X219875313Y-40800990D01*
X219875313Y-40800990D02*
X219970551Y-40753371D01*
X219970551Y-40753371D02*
X220208646Y-40753371D01*
X220208646Y-40753371D02*
X220303884Y-40800990D01*
X220303884Y-40800990D02*
X220351503Y-40848609D01*
X220351503Y-40848609D02*
X220399122Y-40943847D01*
X220399122Y-40943847D02*
X220399122Y-41181942D01*
X220399122Y-41181942D02*
X220351503Y-41277180D01*
X220351503Y-41277180D02*
X220303884Y-41324800D01*
X220303884Y-41324800D02*
X220208646Y-41372419D01*
X220208646Y-41372419D02*
X219970551Y-41372419D01*
X219970551Y-41372419D02*
X219875313Y-41324800D01*
X219875313Y-41324800D02*
X219827694Y-41277180D01*
X220827694Y-41372419D02*
X220827694Y-40705752D01*
X220827694Y-40800990D02*
X220875313Y-40753371D01*
X220875313Y-40753371D02*
X220970551Y-40705752D01*
X220970551Y-40705752D02*
X221113408Y-40705752D01*
X221113408Y-40705752D02*
X221208646Y-40753371D01*
X221208646Y-40753371D02*
X221256265Y-40848609D01*
X221256265Y-40848609D02*
X221256265Y-41372419D01*
X221256265Y-40848609D02*
X221303884Y-40753371D01*
X221303884Y-40753371D02*
X221399122Y-40705752D01*
X221399122Y-40705752D02*
X221541979Y-40705752D01*
X221541979Y-40705752D02*
X221637218Y-40753371D01*
X221637218Y-40753371D02*
X221684837Y-40848609D01*
X221684837Y-40848609D02*
X221684837Y-41372419D01*
X222161027Y-41372419D02*
X222161027Y-40705752D01*
X222161027Y-40800990D02*
X222208646Y-40753371D01*
X222208646Y-40753371D02*
X222303884Y-40705752D01*
X222303884Y-40705752D02*
X222446741Y-40705752D01*
X222446741Y-40705752D02*
X222541979Y-40753371D01*
X222541979Y-40753371D02*
X222589598Y-40848609D01*
X222589598Y-40848609D02*
X222589598Y-41372419D01*
X222589598Y-40848609D02*
X222637217Y-40753371D01*
X222637217Y-40753371D02*
X222732455Y-40705752D01*
X222732455Y-40705752D02*
X222875312Y-40705752D01*
X222875312Y-40705752D02*
X222970551Y-40753371D01*
X222970551Y-40753371D02*
X223018170Y-40848609D01*
X223018170Y-40848609D02*
X223018170Y-41372419D01*
X188661027Y-64991466D02*
X189422932Y-64991466D01*
X189041979Y-65372419D02*
X189041979Y-64610514D01*
X189851503Y-65324800D02*
X189994360Y-65372419D01*
X189994360Y-65372419D02*
X190232455Y-65372419D01*
X190232455Y-65372419D02*
X190327693Y-65324800D01*
X190327693Y-65324800D02*
X190375312Y-65277180D01*
X190375312Y-65277180D02*
X190422931Y-65181942D01*
X190422931Y-65181942D02*
X190422931Y-65086704D01*
X190422931Y-65086704D02*
X190375312Y-64991466D01*
X190375312Y-64991466D02*
X190327693Y-64943847D01*
X190327693Y-64943847D02*
X190232455Y-64896228D01*
X190232455Y-64896228D02*
X190041979Y-64848609D01*
X190041979Y-64848609D02*
X189946741Y-64800990D01*
X189946741Y-64800990D02*
X189899122Y-64753371D01*
X189899122Y-64753371D02*
X189851503Y-64658133D01*
X189851503Y-64658133D02*
X189851503Y-64562895D01*
X189851503Y-64562895D02*
X189899122Y-64467657D01*
X189899122Y-64467657D02*
X189946741Y-64420038D01*
X189946741Y-64420038D02*
X190041979Y-64372419D01*
X190041979Y-64372419D02*
X190280074Y-64372419D01*
X190280074Y-64372419D02*
X190422931Y-64420038D01*
X190851503Y-65372419D02*
X190851503Y-64372419D01*
X190851503Y-64372419D02*
X191232455Y-64372419D01*
X191232455Y-64372419D02*
X191327693Y-64420038D01*
X191327693Y-64420038D02*
X191375312Y-64467657D01*
X191375312Y-64467657D02*
X191422931Y-64562895D01*
X191422931Y-64562895D02*
X191422931Y-64705752D01*
X191422931Y-64705752D02*
X191375312Y-64800990D01*
X191375312Y-64800990D02*
X191327693Y-64848609D01*
X191327693Y-64848609D02*
X191232455Y-64896228D01*
X191232455Y-64896228D02*
X190851503Y-64896228D01*
X191851503Y-65372419D02*
X191851503Y-64372419D01*
X192422931Y-65372419D02*
X191994360Y-64800990D01*
X192422931Y-64372419D02*
X191851503Y-64943847D01*
X171280074Y-123372419D02*
X170803884Y-123372419D01*
X170803884Y-123372419D02*
X170756265Y-123848609D01*
X170756265Y-123848609D02*
X170803884Y-123800990D01*
X170803884Y-123800990D02*
X170899122Y-123753371D01*
X170899122Y-123753371D02*
X171137217Y-123753371D01*
X171137217Y-123753371D02*
X171232455Y-123800990D01*
X171232455Y-123800990D02*
X171280074Y-123848609D01*
X171280074Y-123848609D02*
X171327693Y-123943847D01*
X171327693Y-123943847D02*
X171327693Y-124181942D01*
X171327693Y-124181942D02*
X171280074Y-124277180D01*
X171280074Y-124277180D02*
X171232455Y-124324800D01*
X171232455Y-124324800D02*
X171137217Y-124372419D01*
X171137217Y-124372419D02*
X170899122Y-124372419D01*
X170899122Y-124372419D02*
X170803884Y-124324800D01*
X170803884Y-124324800D02*
X170756265Y-124277180D01*
X171613408Y-123372419D02*
X171946741Y-124372419D01*
X171946741Y-124372419D02*
X172280074Y-123372419D01*
X109303884Y-124872419D02*
X108732456Y-124872419D01*
X109018170Y-124872419D02*
X109018170Y-123872419D01*
X109018170Y-123872419D02*
X108922932Y-124015276D01*
X108922932Y-124015276D02*
X108827694Y-124110514D01*
X108827694Y-124110514D02*
X108732456Y-124158133D01*
X110256265Y-124872419D02*
X109684837Y-124872419D01*
X109970551Y-124872419D02*
X109970551Y-123872419D01*
X109970551Y-123872419D02*
X109875313Y-124015276D01*
X109875313Y-124015276D02*
X109780075Y-124110514D01*
X109780075Y-124110514D02*
X109684837Y-124158133D01*
X193351503Y-145372419D02*
X193541979Y-145372419D01*
X193541979Y-145372419D02*
X193637217Y-145324800D01*
X193637217Y-145324800D02*
X193684836Y-145277180D01*
X193684836Y-145277180D02*
X193780074Y-145134323D01*
X193780074Y-145134323D02*
X193827693Y-144943847D01*
X193827693Y-144943847D02*
X193827693Y-144562895D01*
X193827693Y-144562895D02*
X193780074Y-144467657D01*
X193780074Y-144467657D02*
X193732455Y-144420038D01*
X193732455Y-144420038D02*
X193637217Y-144372419D01*
X193637217Y-144372419D02*
X193446741Y-144372419D01*
X193446741Y-144372419D02*
X193351503Y-144420038D01*
X193351503Y-144420038D02*
X193303884Y-144467657D01*
X193303884Y-144467657D02*
X193256265Y-144562895D01*
X193256265Y-144562895D02*
X193256265Y-144800990D01*
X193256265Y-144800990D02*
X193303884Y-144896228D01*
X193303884Y-144896228D02*
X193351503Y-144943847D01*
X193351503Y-144943847D02*
X193446741Y-144991466D01*
X193446741Y-144991466D02*
X193637217Y-144991466D01*
X193637217Y-144991466D02*
X193732455Y-144943847D01*
X193732455Y-144943847D02*
X193780074Y-144896228D01*
X193780074Y-144896228D02*
X193827693Y-144800990D01*
X111327693Y-38372419D02*
X110756265Y-38372419D01*
X111041979Y-38372419D02*
X111041979Y-37372419D01*
X111041979Y-37372419D02*
X110946741Y-37515276D01*
X110946741Y-37515276D02*
X110851503Y-37610514D01*
X110851503Y-37610514D02*
X110756265Y-37658133D01*
X111756265Y-38277180D02*
X111803884Y-38324800D01*
X111803884Y-38324800D02*
X111756265Y-38372419D01*
X111756265Y-38372419D02*
X111708646Y-38324800D01*
X111708646Y-38324800D02*
X111756265Y-38277180D01*
X111756265Y-38277180D02*
X111756265Y-38372419D01*
X112708645Y-37372419D02*
X112232455Y-37372419D01*
X112232455Y-37372419D02*
X112184836Y-37848609D01*
X112184836Y-37848609D02*
X112232455Y-37800990D01*
X112232455Y-37800990D02*
X112327693Y-37753371D01*
X112327693Y-37753371D02*
X112565788Y-37753371D01*
X112565788Y-37753371D02*
X112661026Y-37800990D01*
X112661026Y-37800990D02*
X112708645Y-37848609D01*
X112708645Y-37848609D02*
X112756264Y-37943847D01*
X112756264Y-37943847D02*
X112756264Y-38181942D01*
X112756264Y-38181942D02*
X112708645Y-38277180D01*
X112708645Y-38277180D02*
X112661026Y-38324800D01*
X112661026Y-38324800D02*
X112565788Y-38372419D01*
X112565788Y-38372419D02*
X112327693Y-38372419D01*
X112327693Y-38372419D02*
X112232455Y-38324800D01*
X112232455Y-38324800D02*
X112184836Y-38277180D01*
X113184836Y-38372419D02*
X113184836Y-37372419D01*
X113280074Y-37991466D02*
X113565788Y-38372419D01*
X113565788Y-37705752D02*
X113184836Y-38086704D01*
X113946741Y-38372419D02*
X114184836Y-38372419D01*
X114184836Y-38372419D02*
X114184836Y-38181942D01*
X114184836Y-38181942D02*
X114089598Y-38134323D01*
X114089598Y-38134323D02*
X113994360Y-38039085D01*
X113994360Y-38039085D02*
X113946741Y-37896228D01*
X113946741Y-37896228D02*
X113946741Y-37658133D01*
X113946741Y-37658133D02*
X113994360Y-37515276D01*
X113994360Y-37515276D02*
X114089598Y-37420038D01*
X114089598Y-37420038D02*
X114232455Y-37372419D01*
X114232455Y-37372419D02*
X114422931Y-37372419D01*
X114422931Y-37372419D02*
X114565788Y-37420038D01*
X114565788Y-37420038D02*
X114661026Y-37515276D01*
X114661026Y-37515276D02*
X114708645Y-37658133D01*
X114708645Y-37658133D02*
X114708645Y-37896228D01*
X114708645Y-37896228D02*
X114661026Y-38039085D01*
X114661026Y-38039085D02*
X114565788Y-38134323D01*
X114565788Y-38134323D02*
X114470550Y-38181942D01*
X114470550Y-38181942D02*
X114470550Y-38372419D01*
X114470550Y-38372419D02*
X114708645Y-38372419D01*
X227803884Y-128491466D02*
X228565789Y-128491466D01*
X228184836Y-128872419D02*
X228184836Y-128110514D01*
X177827693Y-52872419D02*
X177256265Y-52872419D01*
X177541979Y-52872419D02*
X177541979Y-51872419D01*
X177541979Y-51872419D02*
X177446741Y-52015276D01*
X177446741Y-52015276D02*
X177351503Y-52110514D01*
X177351503Y-52110514D02*
X177256265Y-52158133D01*
X178256265Y-52872419D02*
X178256265Y-51872419D01*
X178351503Y-52491466D02*
X178637217Y-52872419D01*
X178637217Y-52205752D02*
X178256265Y-52586704D01*
X179018170Y-52872419D02*
X179256265Y-52872419D01*
X179256265Y-52872419D02*
X179256265Y-52681942D01*
X179256265Y-52681942D02*
X179161027Y-52634323D01*
X179161027Y-52634323D02*
X179065789Y-52539085D01*
X179065789Y-52539085D02*
X179018170Y-52396228D01*
X179018170Y-52396228D02*
X179018170Y-52158133D01*
X179018170Y-52158133D02*
X179065789Y-52015276D01*
X179065789Y-52015276D02*
X179161027Y-51920038D01*
X179161027Y-51920038D02*
X179303884Y-51872419D01*
X179303884Y-51872419D02*
X179494360Y-51872419D01*
X179494360Y-51872419D02*
X179637217Y-51920038D01*
X179637217Y-51920038D02*
X179732455Y-52015276D01*
X179732455Y-52015276D02*
X179780074Y-52158133D01*
X179780074Y-52158133D02*
X179780074Y-52396228D01*
X179780074Y-52396228D02*
X179732455Y-52539085D01*
X179732455Y-52539085D02*
X179637217Y-52634323D01*
X179637217Y-52634323D02*
X179541979Y-52681942D01*
X179541979Y-52681942D02*
X179541979Y-52872419D01*
X179541979Y-52872419D02*
X179780074Y-52872419D01*
X190208646Y-144372419D02*
X190827693Y-144372419D01*
X190827693Y-144372419D02*
X190494360Y-144753371D01*
X190494360Y-144753371D02*
X190637217Y-144753371D01*
X190637217Y-144753371D02*
X190732455Y-144800990D01*
X190732455Y-144800990D02*
X190780074Y-144848609D01*
X190780074Y-144848609D02*
X190827693Y-144943847D01*
X190827693Y-144943847D02*
X190827693Y-145181942D01*
X190827693Y-145181942D02*
X190780074Y-145277180D01*
X190780074Y-145277180D02*
X190732455Y-145324800D01*
X190732455Y-145324800D02*
X190637217Y-145372419D01*
X190637217Y-145372419D02*
X190351503Y-145372419D01*
X190351503Y-145372419D02*
X190256265Y-145324800D01*
X190256265Y-145324800D02*
X190208646Y-145277180D01*
X191161027Y-144372419D02*
X191780074Y-144372419D01*
X191780074Y-144372419D02*
X191446741Y-144753371D01*
X191446741Y-144753371D02*
X191589598Y-144753371D01*
X191589598Y-144753371D02*
X191684836Y-144800990D01*
X191684836Y-144800990D02*
X191732455Y-144848609D01*
X191732455Y-144848609D02*
X191780074Y-144943847D01*
X191780074Y-144943847D02*
X191780074Y-145181942D01*
X191780074Y-145181942D02*
X191732455Y-145277180D01*
X191732455Y-145277180D02*
X191684836Y-145324800D01*
X191684836Y-145324800D02*
X191589598Y-145372419D01*
X191589598Y-145372419D02*
X191303884Y-145372419D01*
X191303884Y-145372419D02*
X191208646Y-145324800D01*
X191208646Y-145324800D02*
X191161027Y-145277180D01*
X107803884Y-53881522D02*
X108565789Y-53881522D01*
X108184836Y-54262475D02*
X108184836Y-53500570D01*
X107803884Y-55491466D02*
X108565789Y-55491466D01*
X183327693Y-145372419D02*
X182756265Y-145372419D01*
X183041979Y-145372419D02*
X183041979Y-144372419D01*
X183041979Y-144372419D02*
X182946741Y-144515276D01*
X182946741Y-144515276D02*
X182851503Y-144610514D01*
X182851503Y-144610514D02*
X182756265Y-144658133D01*
X184280074Y-145372419D02*
X183708646Y-145372419D01*
X183994360Y-145372419D02*
X183994360Y-144372419D01*
X183994360Y-144372419D02*
X183899122Y-144515276D01*
X183899122Y-144515276D02*
X183803884Y-144610514D01*
X183803884Y-144610514D02*
X183708646Y-144658133D01*
X109303884Y-122872419D02*
X108732456Y-122872419D01*
X109018170Y-122872419D02*
X109018170Y-121872419D01*
X109018170Y-121872419D02*
X108922932Y-122015276D01*
X108922932Y-122015276D02*
X108827694Y-122110514D01*
X108827694Y-122110514D02*
X108732456Y-122158133D01*
X109922932Y-121872419D02*
X110018170Y-121872419D01*
X110018170Y-121872419D02*
X110113408Y-121920038D01*
X110113408Y-121920038D02*
X110161027Y-121967657D01*
X110161027Y-121967657D02*
X110208646Y-122062895D01*
X110208646Y-122062895D02*
X110256265Y-122253371D01*
X110256265Y-122253371D02*
X110256265Y-122491466D01*
X110256265Y-122491466D02*
X110208646Y-122681942D01*
X110208646Y-122681942D02*
X110161027Y-122777180D01*
X110161027Y-122777180D02*
X110113408Y-122824800D01*
X110113408Y-122824800D02*
X110018170Y-122872419D01*
X110018170Y-122872419D02*
X109922932Y-122872419D01*
X109922932Y-122872419D02*
X109827694Y-122824800D01*
X109827694Y-122824800D02*
X109780075Y-122777180D01*
X109780075Y-122777180D02*
X109732456Y-122681942D01*
X109732456Y-122681942D02*
X109684837Y-122491466D01*
X109684837Y-122491466D02*
X109684837Y-122253371D01*
X109684837Y-122253371D02*
X109732456Y-122062895D01*
X109732456Y-122062895D02*
X109780075Y-121967657D01*
X109780075Y-121967657D02*
X109827694Y-121920038D01*
X109827694Y-121920038D02*
X109922932Y-121872419D01*
X177827693Y-49872419D02*
X177256265Y-49872419D01*
X177541979Y-49872419D02*
X177541979Y-48872419D01*
X177541979Y-48872419D02*
X177446741Y-49015276D01*
X177446741Y-49015276D02*
X177351503Y-49110514D01*
X177351503Y-49110514D02*
X177256265Y-49158133D01*
X178256265Y-49872419D02*
X178256265Y-48872419D01*
X178351503Y-49491466D02*
X178637217Y-49872419D01*
X178637217Y-49205752D02*
X178256265Y-49586704D01*
X179018170Y-49872419D02*
X179256265Y-49872419D01*
X179256265Y-49872419D02*
X179256265Y-49681942D01*
X179256265Y-49681942D02*
X179161027Y-49634323D01*
X179161027Y-49634323D02*
X179065789Y-49539085D01*
X179065789Y-49539085D02*
X179018170Y-49396228D01*
X179018170Y-49396228D02*
X179018170Y-49158133D01*
X179018170Y-49158133D02*
X179065789Y-49015276D01*
X179065789Y-49015276D02*
X179161027Y-48920038D01*
X179161027Y-48920038D02*
X179303884Y-48872419D01*
X179303884Y-48872419D02*
X179494360Y-48872419D01*
X179494360Y-48872419D02*
X179637217Y-48920038D01*
X179637217Y-48920038D02*
X179732455Y-49015276D01*
X179732455Y-49015276D02*
X179780074Y-49158133D01*
X179780074Y-49158133D02*
X179780074Y-49396228D01*
X179780074Y-49396228D02*
X179732455Y-49539085D01*
X179732455Y-49539085D02*
X179637217Y-49634323D01*
X179637217Y-49634323D02*
X179541979Y-49681942D01*
X179541979Y-49681942D02*
X179541979Y-49872419D01*
X179541979Y-49872419D02*
X179780074Y-49872419D01*
X224637217Y-131311228D02*
X223922931Y-131311228D01*
X223922931Y-131311228D02*
X223851503Y-132025514D01*
X223851503Y-132025514D02*
X223922931Y-131954085D01*
X223922931Y-131954085D02*
X224065789Y-131882657D01*
X224065789Y-131882657D02*
X224422931Y-131882657D01*
X224422931Y-131882657D02*
X224565789Y-131954085D01*
X224565789Y-131954085D02*
X224637217Y-132025514D01*
X224637217Y-132025514D02*
X224708646Y-132168371D01*
X224708646Y-132168371D02*
X224708646Y-132525514D01*
X224708646Y-132525514D02*
X224637217Y-132668371D01*
X224637217Y-132668371D02*
X224565789Y-132739800D01*
X224565789Y-132739800D02*
X224422931Y-132811228D01*
X224422931Y-132811228D02*
X224065789Y-132811228D01*
X224065789Y-132811228D02*
X223922931Y-132739800D01*
X223922931Y-132739800D02*
X223851503Y-132668371D01*
X225137217Y-131311228D02*
X225637217Y-132811228D01*
X225637217Y-132811228D02*
X226137217Y-131311228D01*
X195946741Y-144800990D02*
X195851503Y-144753371D01*
X195851503Y-144753371D02*
X195803884Y-144705752D01*
X195803884Y-144705752D02*
X195756265Y-144610514D01*
X195756265Y-144610514D02*
X195756265Y-144562895D01*
X195756265Y-144562895D02*
X195803884Y-144467657D01*
X195803884Y-144467657D02*
X195851503Y-144420038D01*
X195851503Y-144420038D02*
X195946741Y-144372419D01*
X195946741Y-144372419D02*
X196137217Y-144372419D01*
X196137217Y-144372419D02*
X196232455Y-144420038D01*
X196232455Y-144420038D02*
X196280074Y-144467657D01*
X196280074Y-144467657D02*
X196327693Y-144562895D01*
X196327693Y-144562895D02*
X196327693Y-144610514D01*
X196327693Y-144610514D02*
X196280074Y-144705752D01*
X196280074Y-144705752D02*
X196232455Y-144753371D01*
X196232455Y-144753371D02*
X196137217Y-144800990D01*
X196137217Y-144800990D02*
X195946741Y-144800990D01*
X195946741Y-144800990D02*
X195851503Y-144848609D01*
X195851503Y-144848609D02*
X195803884Y-144896228D01*
X195803884Y-144896228D02*
X195756265Y-144991466D01*
X195756265Y-144991466D02*
X195756265Y-145181942D01*
X195756265Y-145181942D02*
X195803884Y-145277180D01*
X195803884Y-145277180D02*
X195851503Y-145324800D01*
X195851503Y-145324800D02*
X195946741Y-145372419D01*
X195946741Y-145372419D02*
X196137217Y-145372419D01*
X196137217Y-145372419D02*
X196232455Y-145324800D01*
X196232455Y-145324800D02*
X196280074Y-145277180D01*
X196280074Y-145277180D02*
X196327693Y-145181942D01*
X196327693Y-145181942D02*
X196327693Y-144991466D01*
X196327693Y-144991466D02*
X196280074Y-144896228D01*
X196280074Y-144896228D02*
X196232455Y-144848609D01*
X196232455Y-144848609D02*
X196137217Y-144800990D01*
X190565788Y-61920038D02*
X190470550Y-61872419D01*
X190470550Y-61872419D02*
X190327693Y-61872419D01*
X190327693Y-61872419D02*
X190184836Y-61920038D01*
X190184836Y-61920038D02*
X190089598Y-62015276D01*
X190089598Y-62015276D02*
X190041979Y-62110514D01*
X190041979Y-62110514D02*
X189994360Y-62300990D01*
X189994360Y-62300990D02*
X189994360Y-62443847D01*
X189994360Y-62443847D02*
X190041979Y-62634323D01*
X190041979Y-62634323D02*
X190089598Y-62729561D01*
X190089598Y-62729561D02*
X190184836Y-62824800D01*
X190184836Y-62824800D02*
X190327693Y-62872419D01*
X190327693Y-62872419D02*
X190422931Y-62872419D01*
X190422931Y-62872419D02*
X190565788Y-62824800D01*
X190565788Y-62824800D02*
X190613407Y-62777180D01*
X190613407Y-62777180D02*
X190613407Y-62443847D01*
X190613407Y-62443847D02*
X190422931Y-62443847D01*
X191041979Y-62205752D02*
X191041979Y-62872419D01*
X191041979Y-62300990D02*
X191089598Y-62253371D01*
X191089598Y-62253371D02*
X191184836Y-62205752D01*
X191184836Y-62205752D02*
X191327693Y-62205752D01*
X191327693Y-62205752D02*
X191422931Y-62253371D01*
X191422931Y-62253371D02*
X191470550Y-62348609D01*
X191470550Y-62348609D02*
X191470550Y-62872419D01*
X192375312Y-62872419D02*
X192375312Y-61872419D01*
X192375312Y-62824800D02*
X192280074Y-62872419D01*
X192280074Y-62872419D02*
X192089598Y-62872419D01*
X192089598Y-62872419D02*
X191994360Y-62824800D01*
X191994360Y-62824800D02*
X191946741Y-62777180D01*
X191946741Y-62777180D02*
X191899122Y-62681942D01*
X191899122Y-62681942D02*
X191899122Y-62396228D01*
X191899122Y-62396228D02*
X191946741Y-62300990D01*
X191946741Y-62300990D02*
X191994360Y-62253371D01*
X191994360Y-62253371D02*
X192089598Y-62205752D01*
X192089598Y-62205752D02*
X192280074Y-62205752D01*
X192280074Y-62205752D02*
X192375312Y-62253371D01*
X190994360Y-51872419D02*
X191565788Y-51872419D01*
X191280074Y-52872419D02*
X191280074Y-51872419D01*
X191803884Y-51872419D02*
X192470550Y-52872419D01*
X192470550Y-51872419D02*
X191803884Y-52872419D01*
X111232455Y-40372419D02*
X111041979Y-40372419D01*
X111041979Y-40372419D02*
X110946741Y-40420038D01*
X110946741Y-40420038D02*
X110899122Y-40467657D01*
X110899122Y-40467657D02*
X110803884Y-40610514D01*
X110803884Y-40610514D02*
X110756265Y-40800990D01*
X110756265Y-40800990D02*
X110756265Y-41181942D01*
X110756265Y-41181942D02*
X110803884Y-41277180D01*
X110803884Y-41277180D02*
X110851503Y-41324800D01*
X110851503Y-41324800D02*
X110946741Y-41372419D01*
X110946741Y-41372419D02*
X111137217Y-41372419D01*
X111137217Y-41372419D02*
X111232455Y-41324800D01*
X111232455Y-41324800D02*
X111280074Y-41277180D01*
X111280074Y-41277180D02*
X111327693Y-41181942D01*
X111327693Y-41181942D02*
X111327693Y-40943847D01*
X111327693Y-40943847D02*
X111280074Y-40848609D01*
X111280074Y-40848609D02*
X111232455Y-40800990D01*
X111232455Y-40800990D02*
X111137217Y-40753371D01*
X111137217Y-40753371D02*
X110946741Y-40753371D01*
X110946741Y-40753371D02*
X110851503Y-40800990D01*
X110851503Y-40800990D02*
X110803884Y-40848609D01*
X110803884Y-40848609D02*
X110756265Y-40943847D01*
X112184836Y-40372419D02*
X111994360Y-40372419D01*
X111994360Y-40372419D02*
X111899122Y-40420038D01*
X111899122Y-40420038D02*
X111851503Y-40467657D01*
X111851503Y-40467657D02*
X111756265Y-40610514D01*
X111756265Y-40610514D02*
X111708646Y-40800990D01*
X111708646Y-40800990D02*
X111708646Y-41181942D01*
X111708646Y-41181942D02*
X111756265Y-41277180D01*
X111756265Y-41277180D02*
X111803884Y-41324800D01*
X111803884Y-41324800D02*
X111899122Y-41372419D01*
X111899122Y-41372419D02*
X112089598Y-41372419D01*
X112089598Y-41372419D02*
X112184836Y-41324800D01*
X112184836Y-41324800D02*
X112232455Y-41277180D01*
X112232455Y-41277180D02*
X112280074Y-41181942D01*
X112280074Y-41181942D02*
X112280074Y-40943847D01*
X112280074Y-40943847D02*
X112232455Y-40848609D01*
X112232455Y-40848609D02*
X112184836Y-40800990D01*
X112184836Y-40800990D02*
X112089598Y-40753371D01*
X112089598Y-40753371D02*
X111899122Y-40753371D01*
X111899122Y-40753371D02*
X111803884Y-40800990D01*
X111803884Y-40800990D02*
X111756265Y-40848609D01*
X111756265Y-40848609D02*
X111708646Y-40943847D01*
X112899122Y-40372419D02*
X112994360Y-40372419D01*
X112994360Y-40372419D02*
X113089598Y-40420038D01*
X113089598Y-40420038D02*
X113137217Y-40467657D01*
X113137217Y-40467657D02*
X113184836Y-40562895D01*
X113184836Y-40562895D02*
X113232455Y-40753371D01*
X113232455Y-40753371D02*
X113232455Y-40991466D01*
X113232455Y-40991466D02*
X113184836Y-41181942D01*
X113184836Y-41181942D02*
X113137217Y-41277180D01*
X113137217Y-41277180D02*
X113089598Y-41324800D01*
X113089598Y-41324800D02*
X112994360Y-41372419D01*
X112994360Y-41372419D02*
X112899122Y-41372419D01*
X112899122Y-41372419D02*
X112803884Y-41324800D01*
X112803884Y-41324800D02*
X112756265Y-41277180D01*
X112756265Y-41277180D02*
X112708646Y-41181942D01*
X112708646Y-41181942D02*
X112661027Y-40991466D01*
X112661027Y-40991466D02*
X112661027Y-40753371D01*
X112661027Y-40753371D02*
X112708646Y-40562895D01*
X112708646Y-40562895D02*
X112756265Y-40467657D01*
X112756265Y-40467657D02*
X112803884Y-40420038D01*
X112803884Y-40420038D02*
X112899122Y-40372419D01*
X113613408Y-41372419D02*
X113851503Y-41372419D01*
X113851503Y-41372419D02*
X113851503Y-41181942D01*
X113851503Y-41181942D02*
X113756265Y-41134323D01*
X113756265Y-41134323D02*
X113661027Y-41039085D01*
X113661027Y-41039085D02*
X113613408Y-40896228D01*
X113613408Y-40896228D02*
X113613408Y-40658133D01*
X113613408Y-40658133D02*
X113661027Y-40515276D01*
X113661027Y-40515276D02*
X113756265Y-40420038D01*
X113756265Y-40420038D02*
X113899122Y-40372419D01*
X113899122Y-40372419D02*
X114089598Y-40372419D01*
X114089598Y-40372419D02*
X114232455Y-40420038D01*
X114232455Y-40420038D02*
X114327693Y-40515276D01*
X114327693Y-40515276D02*
X114375312Y-40658133D01*
X114375312Y-40658133D02*
X114375312Y-40896228D01*
X114375312Y-40896228D02*
X114327693Y-41039085D01*
X114327693Y-41039085D02*
X114232455Y-41134323D01*
X114232455Y-41134323D02*
X114137217Y-41181942D01*
X114137217Y-41181942D02*
X114137217Y-41372419D01*
X114137217Y-41372419D02*
X114375312Y-41372419D01*
X107736398Y-47381522D02*
X108498303Y-47381522D01*
X108117350Y-47762475D02*
X108117350Y-47000570D01*
X107736398Y-48991466D02*
X108498303Y-48991466D01*
X180803884Y-36491466D02*
X181565789Y-36491466D01*
X181184836Y-36872419D02*
X181184836Y-36110514D01*
X108399122Y-131420038D02*
X108303884Y-131372419D01*
X108303884Y-131372419D02*
X108161027Y-131372419D01*
X108161027Y-131372419D02*
X108018170Y-131420038D01*
X108018170Y-131420038D02*
X107922932Y-131515276D01*
X107922932Y-131515276D02*
X107875313Y-131610514D01*
X107875313Y-131610514D02*
X107827694Y-131800990D01*
X107827694Y-131800990D02*
X107827694Y-131943847D01*
X107827694Y-131943847D02*
X107875313Y-132134323D01*
X107875313Y-132134323D02*
X107922932Y-132229561D01*
X107922932Y-132229561D02*
X108018170Y-132324800D01*
X108018170Y-132324800D02*
X108161027Y-132372419D01*
X108161027Y-132372419D02*
X108256265Y-132372419D01*
X108256265Y-132372419D02*
X108399122Y-132324800D01*
X108399122Y-132324800D02*
X108446741Y-132277180D01*
X108446741Y-132277180D02*
X108446741Y-131943847D01*
X108446741Y-131943847D02*
X108256265Y-131943847D01*
X108875313Y-131705752D02*
X108875313Y-132372419D01*
X108875313Y-131800990D02*
X108922932Y-131753371D01*
X108922932Y-131753371D02*
X109018170Y-131705752D01*
X109018170Y-131705752D02*
X109161027Y-131705752D01*
X109161027Y-131705752D02*
X109256265Y-131753371D01*
X109256265Y-131753371D02*
X109303884Y-131848609D01*
X109303884Y-131848609D02*
X109303884Y-132372419D01*
X110208646Y-132372419D02*
X110208646Y-131372419D01*
X110208646Y-132324800D02*
X110113408Y-132372419D01*
X110113408Y-132372419D02*
X109922932Y-132372419D01*
X109922932Y-132372419D02*
X109827694Y-132324800D01*
X109827694Y-132324800D02*
X109780075Y-132277180D01*
X109780075Y-132277180D02*
X109732456Y-132181942D01*
X109732456Y-132181942D02*
X109732456Y-131896228D01*
X109732456Y-131896228D02*
X109780075Y-131800990D01*
X109780075Y-131800990D02*
X109827694Y-131753371D01*
X109827694Y-131753371D02*
X109922932Y-131705752D01*
X109922932Y-131705752D02*
X110113408Y-131705752D01*
X110113408Y-131705752D02*
X110208646Y-131753371D01*
X192086704Y-108243734D02*
X192086704Y-107767544D01*
X192372419Y-108338972D02*
X191372419Y-108005639D01*
X191372419Y-108005639D02*
X192372419Y-107672306D01*
X191705752Y-107338972D02*
X192372419Y-107338972D01*
X191800990Y-107338972D02*
X191753371Y-107291353D01*
X191753371Y-107291353D02*
X191705752Y-107196115D01*
X191705752Y-107196115D02*
X191705752Y-107053258D01*
X191705752Y-107053258D02*
X191753371Y-106958020D01*
X191753371Y-106958020D02*
X191848609Y-106910401D01*
X191848609Y-106910401D02*
X192372419Y-106910401D01*
X192372419Y-106005639D02*
X191848609Y-106005639D01*
X191848609Y-106005639D02*
X191753371Y-106053258D01*
X191753371Y-106053258D02*
X191705752Y-106148496D01*
X191705752Y-106148496D02*
X191705752Y-106338972D01*
X191705752Y-106338972D02*
X191753371Y-106434210D01*
X192324800Y-106005639D02*
X192372419Y-106100877D01*
X192372419Y-106100877D02*
X192372419Y-106338972D01*
X192372419Y-106338972D02*
X192324800Y-106434210D01*
X192324800Y-106434210D02*
X192229561Y-106481829D01*
X192229561Y-106481829D02*
X192134323Y-106481829D01*
X192134323Y-106481829D02*
X192039085Y-106434210D01*
X192039085Y-106434210D02*
X191991466Y-106338972D01*
X191991466Y-106338972D02*
X191991466Y-106100877D01*
X191991466Y-106100877D02*
X191943847Y-106005639D01*
X192372419Y-105386591D02*
X192324800Y-105481829D01*
X192324800Y-105481829D02*
X192229561Y-105529448D01*
X192229561Y-105529448D02*
X191372419Y-105529448D01*
X192372419Y-104862781D02*
X192324800Y-104958019D01*
X192324800Y-104958019D02*
X192277180Y-105005638D01*
X192277180Y-105005638D02*
X192181942Y-105053257D01*
X192181942Y-105053257D02*
X191896228Y-105053257D01*
X191896228Y-105053257D02*
X191800990Y-105005638D01*
X191800990Y-105005638D02*
X191753371Y-104958019D01*
X191753371Y-104958019D02*
X191705752Y-104862781D01*
X191705752Y-104862781D02*
X191705752Y-104719924D01*
X191705752Y-104719924D02*
X191753371Y-104624686D01*
X191753371Y-104624686D02*
X191800990Y-104577067D01*
X191800990Y-104577067D02*
X191896228Y-104529448D01*
X191896228Y-104529448D02*
X192181942Y-104529448D01*
X192181942Y-104529448D02*
X192277180Y-104577067D01*
X192277180Y-104577067D02*
X192324800Y-104624686D01*
X192324800Y-104624686D02*
X192372419Y-104719924D01*
X192372419Y-104719924D02*
X192372419Y-104862781D01*
X191705752Y-103672305D02*
X192515276Y-103672305D01*
X192515276Y-103672305D02*
X192610514Y-103719924D01*
X192610514Y-103719924D02*
X192658133Y-103767543D01*
X192658133Y-103767543D02*
X192705752Y-103862781D01*
X192705752Y-103862781D02*
X192705752Y-104005638D01*
X192705752Y-104005638D02*
X192658133Y-104100876D01*
X192324800Y-103672305D02*
X192372419Y-103767543D01*
X192372419Y-103767543D02*
X192372419Y-103958019D01*
X192372419Y-103958019D02*
X192324800Y-104053257D01*
X192324800Y-104053257D02*
X192277180Y-104100876D01*
X192277180Y-104100876D02*
X192181942Y-104148495D01*
X192181942Y-104148495D02*
X191896228Y-104148495D01*
X191896228Y-104148495D02*
X191800990Y-104100876D01*
X191800990Y-104100876D02*
X191753371Y-104053257D01*
X191753371Y-104053257D02*
X191705752Y-103958019D01*
X191705752Y-103958019D02*
X191705752Y-103767543D01*
X191705752Y-103767543D02*
X191753371Y-103672305D01*
X192372419Y-102434209D02*
X191372419Y-102434209D01*
X191705752Y-101958019D02*
X192372419Y-101958019D01*
X191800990Y-101958019D02*
X191753371Y-101910400D01*
X191753371Y-101910400D02*
X191705752Y-101815162D01*
X191705752Y-101815162D02*
X191705752Y-101672305D01*
X191705752Y-101672305D02*
X191753371Y-101577067D01*
X191753371Y-101577067D02*
X191848609Y-101529448D01*
X191848609Y-101529448D02*
X192372419Y-101529448D01*
X189803884Y-47491466D02*
X190565789Y-47491466D01*
X190184836Y-47872419D02*
X190184836Y-47110514D01*
X191518169Y-46872419D02*
X191041979Y-46872419D01*
X191041979Y-46872419D02*
X190994360Y-47348609D01*
X190994360Y-47348609D02*
X191041979Y-47300990D01*
X191041979Y-47300990D02*
X191137217Y-47253371D01*
X191137217Y-47253371D02*
X191375312Y-47253371D01*
X191375312Y-47253371D02*
X191470550Y-47300990D01*
X191470550Y-47300990D02*
X191518169Y-47348609D01*
X191518169Y-47348609D02*
X191565788Y-47443847D01*
X191565788Y-47443847D02*
X191565788Y-47681942D01*
X191565788Y-47681942D02*
X191518169Y-47777180D01*
X191518169Y-47777180D02*
X191470550Y-47824800D01*
X191470550Y-47824800D02*
X191375312Y-47872419D01*
X191375312Y-47872419D02*
X191137217Y-47872419D01*
X191137217Y-47872419D02*
X191041979Y-47824800D01*
X191041979Y-47824800D02*
X190994360Y-47777180D01*
X191851503Y-46872419D02*
X192184836Y-47872419D01*
X192184836Y-47872419D02*
X192518169Y-46872419D01*
X109303884Y-129872419D02*
X108970551Y-129396228D01*
X108732456Y-129872419D02*
X108732456Y-128872419D01*
X108732456Y-128872419D02*
X109113408Y-128872419D01*
X109113408Y-128872419D02*
X109208646Y-128920038D01*
X109208646Y-128920038D02*
X109256265Y-128967657D01*
X109256265Y-128967657D02*
X109303884Y-129062895D01*
X109303884Y-129062895D02*
X109303884Y-129205752D01*
X109303884Y-129205752D02*
X109256265Y-129300990D01*
X109256265Y-129300990D02*
X109208646Y-129348609D01*
X109208646Y-129348609D02*
X109113408Y-129396228D01*
X109113408Y-129396228D02*
X108732456Y-129396228D01*
X109637218Y-128872419D02*
X110303884Y-129872419D01*
X110303884Y-128872419D02*
X109637218Y-129872419D01*
X169827693Y-37920038D02*
X169732455Y-37872419D01*
X169732455Y-37872419D02*
X169589598Y-37872419D01*
X169589598Y-37872419D02*
X169446741Y-37920038D01*
X169446741Y-37920038D02*
X169351503Y-38015276D01*
X169351503Y-38015276D02*
X169303884Y-38110514D01*
X169303884Y-38110514D02*
X169256265Y-38300990D01*
X169256265Y-38300990D02*
X169256265Y-38443847D01*
X169256265Y-38443847D02*
X169303884Y-38634323D01*
X169303884Y-38634323D02*
X169351503Y-38729561D01*
X169351503Y-38729561D02*
X169446741Y-38824800D01*
X169446741Y-38824800D02*
X169589598Y-38872419D01*
X169589598Y-38872419D02*
X169684836Y-38872419D01*
X169684836Y-38872419D02*
X169827693Y-38824800D01*
X169827693Y-38824800D02*
X169875312Y-38777180D01*
X169875312Y-38777180D02*
X169875312Y-38443847D01*
X169875312Y-38443847D02*
X169684836Y-38443847D01*
X170303884Y-38205752D02*
X170303884Y-38872419D01*
X170303884Y-38300990D02*
X170351503Y-38253371D01*
X170351503Y-38253371D02*
X170446741Y-38205752D01*
X170446741Y-38205752D02*
X170589598Y-38205752D01*
X170589598Y-38205752D02*
X170684836Y-38253371D01*
X170684836Y-38253371D02*
X170732455Y-38348609D01*
X170732455Y-38348609D02*
X170732455Y-38872419D01*
X171637217Y-38872419D02*
X171637217Y-37872419D01*
X171637217Y-38824800D02*
X171541979Y-38872419D01*
X171541979Y-38872419D02*
X171351503Y-38872419D01*
X171351503Y-38872419D02*
X171256265Y-38824800D01*
X171256265Y-38824800D02*
X171208646Y-38777180D01*
X171208646Y-38777180D02*
X171161027Y-38681942D01*
X171161027Y-38681942D02*
X171161027Y-38396228D01*
X171161027Y-38396228D02*
X171208646Y-38300990D01*
X171208646Y-38300990D02*
X171256265Y-38253371D01*
X171256265Y-38253371D02*
X171351503Y-38205752D01*
X171351503Y-38205752D02*
X171541979Y-38205752D01*
X171541979Y-38205752D02*
X171637217Y-38253371D01*
X222053884Y-64741466D02*
X222815789Y-64741466D01*
X164327693Y-37920038D02*
X164232455Y-37872419D01*
X164232455Y-37872419D02*
X164089598Y-37872419D01*
X164089598Y-37872419D02*
X163946741Y-37920038D01*
X163946741Y-37920038D02*
X163851503Y-38015276D01*
X163851503Y-38015276D02*
X163803884Y-38110514D01*
X163803884Y-38110514D02*
X163756265Y-38300990D01*
X163756265Y-38300990D02*
X163756265Y-38443847D01*
X163756265Y-38443847D02*
X163803884Y-38634323D01*
X163803884Y-38634323D02*
X163851503Y-38729561D01*
X163851503Y-38729561D02*
X163946741Y-38824800D01*
X163946741Y-38824800D02*
X164089598Y-38872419D01*
X164089598Y-38872419D02*
X164184836Y-38872419D01*
X164184836Y-38872419D02*
X164327693Y-38824800D01*
X164327693Y-38824800D02*
X164375312Y-38777180D01*
X164375312Y-38777180D02*
X164375312Y-38443847D01*
X164375312Y-38443847D02*
X164184836Y-38443847D01*
X164803884Y-38205752D02*
X164803884Y-38872419D01*
X164803884Y-38300990D02*
X164851503Y-38253371D01*
X164851503Y-38253371D02*
X164946741Y-38205752D01*
X164946741Y-38205752D02*
X165089598Y-38205752D01*
X165089598Y-38205752D02*
X165184836Y-38253371D01*
X165184836Y-38253371D02*
X165232455Y-38348609D01*
X165232455Y-38348609D02*
X165232455Y-38872419D01*
X166137217Y-38872419D02*
X166137217Y-37872419D01*
X166137217Y-38824800D02*
X166041979Y-38872419D01*
X166041979Y-38872419D02*
X165851503Y-38872419D01*
X165851503Y-38872419D02*
X165756265Y-38824800D01*
X165756265Y-38824800D02*
X165708646Y-38777180D01*
X165708646Y-38777180D02*
X165661027Y-38681942D01*
X165661027Y-38681942D02*
X165661027Y-38396228D01*
X165661027Y-38396228D02*
X165708646Y-38300990D01*
X165708646Y-38300990D02*
X165756265Y-38253371D01*
X165756265Y-38253371D02*
X165851503Y-38205752D01*
X165851503Y-38205752D02*
X166041979Y-38205752D01*
X166041979Y-38205752D02*
X166137217Y-38253371D01*
X217053884Y-73491466D02*
X217815789Y-73491466D01*
X227803884Y-135991466D02*
X228565789Y-135991466D01*
X217053884Y-70991466D02*
X217815789Y-70991466D01*
X217434836Y-71372419D02*
X217434836Y-70610514D01*
X171327693Y-120920038D02*
X171232455Y-120872419D01*
X171232455Y-120872419D02*
X171089598Y-120872419D01*
X171089598Y-120872419D02*
X170946741Y-120920038D01*
X170946741Y-120920038D02*
X170851503Y-121015276D01*
X170851503Y-121015276D02*
X170803884Y-121110514D01*
X170803884Y-121110514D02*
X170756265Y-121300990D01*
X170756265Y-121300990D02*
X170756265Y-121443847D01*
X170756265Y-121443847D02*
X170803884Y-121634323D01*
X170803884Y-121634323D02*
X170851503Y-121729561D01*
X170851503Y-121729561D02*
X170946741Y-121824800D01*
X170946741Y-121824800D02*
X171089598Y-121872419D01*
X171089598Y-121872419D02*
X171184836Y-121872419D01*
X171184836Y-121872419D02*
X171327693Y-121824800D01*
X171327693Y-121824800D02*
X171375312Y-121777180D01*
X171375312Y-121777180D02*
X171375312Y-121443847D01*
X171375312Y-121443847D02*
X171184836Y-121443847D01*
X171803884Y-121205752D02*
X171803884Y-121872419D01*
X171803884Y-121300990D02*
X171851503Y-121253371D01*
X171851503Y-121253371D02*
X171946741Y-121205752D01*
X171946741Y-121205752D02*
X172089598Y-121205752D01*
X172089598Y-121205752D02*
X172184836Y-121253371D01*
X172184836Y-121253371D02*
X172232455Y-121348609D01*
X172232455Y-121348609D02*
X172232455Y-121872419D01*
X173137217Y-121872419D02*
X173137217Y-120872419D01*
X173137217Y-121824800D02*
X173041979Y-121872419D01*
X173041979Y-121872419D02*
X172851503Y-121872419D01*
X172851503Y-121872419D02*
X172756265Y-121824800D01*
X172756265Y-121824800D02*
X172708646Y-121777180D01*
X172708646Y-121777180D02*
X172661027Y-121681942D01*
X172661027Y-121681942D02*
X172661027Y-121396228D01*
X172661027Y-121396228D02*
X172708646Y-121300990D01*
X172708646Y-121300990D02*
X172756265Y-121253371D01*
X172756265Y-121253371D02*
X172851503Y-121205752D01*
X172851503Y-121205752D02*
X173041979Y-121205752D01*
X173041979Y-121205752D02*
X173137217Y-121253371D01*
X188661027Y-59991466D02*
X189422932Y-59991466D01*
X189851503Y-60324800D02*
X189994360Y-60372419D01*
X189994360Y-60372419D02*
X190232455Y-60372419D01*
X190232455Y-60372419D02*
X190327693Y-60324800D01*
X190327693Y-60324800D02*
X190375312Y-60277180D01*
X190375312Y-60277180D02*
X190422931Y-60181942D01*
X190422931Y-60181942D02*
X190422931Y-60086704D01*
X190422931Y-60086704D02*
X190375312Y-59991466D01*
X190375312Y-59991466D02*
X190327693Y-59943847D01*
X190327693Y-59943847D02*
X190232455Y-59896228D01*
X190232455Y-59896228D02*
X190041979Y-59848609D01*
X190041979Y-59848609D02*
X189946741Y-59800990D01*
X189946741Y-59800990D02*
X189899122Y-59753371D01*
X189899122Y-59753371D02*
X189851503Y-59658133D01*
X189851503Y-59658133D02*
X189851503Y-59562895D01*
X189851503Y-59562895D02*
X189899122Y-59467657D01*
X189899122Y-59467657D02*
X189946741Y-59420038D01*
X189946741Y-59420038D02*
X190041979Y-59372419D01*
X190041979Y-59372419D02*
X190280074Y-59372419D01*
X190280074Y-59372419D02*
X190422931Y-59420038D01*
X190851503Y-60372419D02*
X190851503Y-59372419D01*
X190851503Y-59372419D02*
X191232455Y-59372419D01*
X191232455Y-59372419D02*
X191327693Y-59420038D01*
X191327693Y-59420038D02*
X191375312Y-59467657D01*
X191375312Y-59467657D02*
X191422931Y-59562895D01*
X191422931Y-59562895D02*
X191422931Y-59705752D01*
X191422931Y-59705752D02*
X191375312Y-59800990D01*
X191375312Y-59800990D02*
X191327693Y-59848609D01*
X191327693Y-59848609D02*
X191232455Y-59896228D01*
X191232455Y-59896228D02*
X190851503Y-59896228D01*
X191851503Y-60372419D02*
X191851503Y-59372419D01*
X192422931Y-60372419D02*
X191994360Y-59800990D01*
X192422931Y-59372419D02*
X191851503Y-59943847D01*
X109780075Y-120372419D02*
X109970551Y-120372419D01*
X109970551Y-120372419D02*
X110065789Y-120324800D01*
X110065789Y-120324800D02*
X110113408Y-120277180D01*
X110113408Y-120277180D02*
X110208646Y-120134323D01*
X110208646Y-120134323D02*
X110256265Y-119943847D01*
X110256265Y-119943847D02*
X110256265Y-119562895D01*
X110256265Y-119562895D02*
X110208646Y-119467657D01*
X110208646Y-119467657D02*
X110161027Y-119420038D01*
X110161027Y-119420038D02*
X110065789Y-119372419D01*
X110065789Y-119372419D02*
X109875313Y-119372419D01*
X109875313Y-119372419D02*
X109780075Y-119420038D01*
X109780075Y-119420038D02*
X109732456Y-119467657D01*
X109732456Y-119467657D02*
X109684837Y-119562895D01*
X109684837Y-119562895D02*
X109684837Y-119800990D01*
X109684837Y-119800990D02*
X109732456Y-119896228D01*
X109732456Y-119896228D02*
X109780075Y-119943847D01*
X109780075Y-119943847D02*
X109875313Y-119991466D01*
X109875313Y-119991466D02*
X110065789Y-119991466D01*
X110065789Y-119991466D02*
X110161027Y-119943847D01*
X110161027Y-119943847D02*
X110208646Y-119896228D01*
X110208646Y-119896228D02*
X110256265Y-119800990D01*
X189577505Y-36491466D02*
X190339410Y-36491466D01*
X108327693Y-111920038D02*
X108232455Y-111872419D01*
X108232455Y-111872419D02*
X108089598Y-111872419D01*
X108089598Y-111872419D02*
X107946741Y-111920038D01*
X107946741Y-111920038D02*
X107851503Y-112015276D01*
X107851503Y-112015276D02*
X107803884Y-112110514D01*
X107803884Y-112110514D02*
X107756265Y-112300990D01*
X107756265Y-112300990D02*
X107756265Y-112443847D01*
X107756265Y-112443847D02*
X107803884Y-112634323D01*
X107803884Y-112634323D02*
X107851503Y-112729561D01*
X107851503Y-112729561D02*
X107946741Y-112824800D01*
X107946741Y-112824800D02*
X108089598Y-112872419D01*
X108089598Y-112872419D02*
X108184836Y-112872419D01*
X108184836Y-112872419D02*
X108327693Y-112824800D01*
X108327693Y-112824800D02*
X108375312Y-112777180D01*
X108375312Y-112777180D02*
X108375312Y-112443847D01*
X108375312Y-112443847D02*
X108184836Y-112443847D01*
X108803884Y-112205752D02*
X108803884Y-112872419D01*
X108803884Y-112300990D02*
X108851503Y-112253371D01*
X108851503Y-112253371D02*
X108946741Y-112205752D01*
X108946741Y-112205752D02*
X109089598Y-112205752D01*
X109089598Y-112205752D02*
X109184836Y-112253371D01*
X109184836Y-112253371D02*
X109232455Y-112348609D01*
X109232455Y-112348609D02*
X109232455Y-112872419D01*
X110137217Y-112872419D02*
X110137217Y-111872419D01*
X110137217Y-112824800D02*
X110041979Y-112872419D01*
X110041979Y-112872419D02*
X109851503Y-112872419D01*
X109851503Y-112872419D02*
X109756265Y-112824800D01*
X109756265Y-112824800D02*
X109708646Y-112777180D01*
X109708646Y-112777180D02*
X109661027Y-112681942D01*
X109661027Y-112681942D02*
X109661027Y-112396228D01*
X109661027Y-112396228D02*
X109708646Y-112300990D01*
X109708646Y-112300990D02*
X109756265Y-112253371D01*
X109756265Y-112253371D02*
X109851503Y-112205752D01*
X109851503Y-112205752D02*
X110041979Y-112205752D01*
X110041979Y-112205752D02*
X110137217Y-112253371D01*
X114970550Y-128128637D02*
X114803884Y-127890542D01*
X114684836Y-128128637D02*
X114684836Y-127628637D01*
X114684836Y-127628637D02*
X114875312Y-127628637D01*
X114875312Y-127628637D02*
X114922931Y-127652447D01*
X114922931Y-127652447D02*
X114946741Y-127676256D01*
X114946741Y-127676256D02*
X114970550Y-127723875D01*
X114970550Y-127723875D02*
X114970550Y-127795304D01*
X114970550Y-127795304D02*
X114946741Y-127842923D01*
X114946741Y-127842923D02*
X114922931Y-127866732D01*
X114922931Y-127866732D02*
X114875312Y-127890542D01*
X114875312Y-127890542D02*
X114684836Y-127890542D01*
X115137217Y-127628637D02*
X115470550Y-128128637D01*
X115470550Y-127628637D02*
X115137217Y-128128637D01*
X116041978Y-127938161D02*
X116422931Y-127938161D01*
X116661026Y-127795304D02*
X117041979Y-127938161D01*
X117041979Y-127938161D02*
X116661026Y-128081018D01*
X117589598Y-127628637D02*
X117875312Y-127628637D01*
X117732455Y-128128637D02*
X117732455Y-127628637D01*
X117994359Y-127628637D02*
X118327692Y-128128637D01*
X118327692Y-127628637D02*
X117994359Y-128128637D01*
X114613408Y-128433609D02*
X114899122Y-128433609D01*
X114756265Y-128933609D02*
X114756265Y-128433609D01*
X115018169Y-128433609D02*
X115351502Y-128933609D01*
X115351502Y-128433609D02*
X115018169Y-128933609D01*
X115922930Y-128743133D02*
X116303883Y-128743133D01*
X116541978Y-128600276D02*
X116922931Y-128743133D01*
X116922931Y-128743133D02*
X116541978Y-128885990D01*
X117827692Y-128933609D02*
X117661026Y-128695514D01*
X117541978Y-128933609D02*
X117541978Y-128433609D01*
X117541978Y-128433609D02*
X117732454Y-128433609D01*
X117732454Y-128433609D02*
X117780073Y-128457419D01*
X117780073Y-128457419D02*
X117803883Y-128481228D01*
X117803883Y-128481228D02*
X117827692Y-128528847D01*
X117827692Y-128528847D02*
X117827692Y-128600276D01*
X117827692Y-128600276D02*
X117803883Y-128647895D01*
X117803883Y-128647895D02*
X117780073Y-128671704D01*
X117780073Y-128671704D02*
X117732454Y-128695514D01*
X117732454Y-128695514D02*
X117541978Y-128695514D01*
X117994359Y-128433609D02*
X118327692Y-128933609D01*
X118327692Y-128433609D02*
X117994359Y-128933609D01*
X191470550Y-50372419D02*
X191137217Y-49896228D01*
X190899122Y-50372419D02*
X190899122Y-49372419D01*
X190899122Y-49372419D02*
X191280074Y-49372419D01*
X191280074Y-49372419D02*
X191375312Y-49420038D01*
X191375312Y-49420038D02*
X191422931Y-49467657D01*
X191422931Y-49467657D02*
X191470550Y-49562895D01*
X191470550Y-49562895D02*
X191470550Y-49705752D01*
X191470550Y-49705752D02*
X191422931Y-49800990D01*
X191422931Y-49800990D02*
X191375312Y-49848609D01*
X191375312Y-49848609D02*
X191280074Y-49896228D01*
X191280074Y-49896228D02*
X190899122Y-49896228D01*
X191803884Y-49372419D02*
X192470550Y-50372419D01*
X192470550Y-49372419D02*
X191803884Y-50372419D01*
X197827693Y-144420038D02*
X197732455Y-144372419D01*
X197732455Y-144372419D02*
X197589598Y-144372419D01*
X197589598Y-144372419D02*
X197446741Y-144420038D01*
X197446741Y-144420038D02*
X197351503Y-144515276D01*
X197351503Y-144515276D02*
X197303884Y-144610514D01*
X197303884Y-144610514D02*
X197256265Y-144800990D01*
X197256265Y-144800990D02*
X197256265Y-144943847D01*
X197256265Y-144943847D02*
X197303884Y-145134323D01*
X197303884Y-145134323D02*
X197351503Y-145229561D01*
X197351503Y-145229561D02*
X197446741Y-145324800D01*
X197446741Y-145324800D02*
X197589598Y-145372419D01*
X197589598Y-145372419D02*
X197684836Y-145372419D01*
X197684836Y-145372419D02*
X197827693Y-145324800D01*
X197827693Y-145324800D02*
X197875312Y-145277180D01*
X197875312Y-145277180D02*
X197875312Y-144943847D01*
X197875312Y-144943847D02*
X197684836Y-144943847D01*
X198303884Y-144705752D02*
X198303884Y-145372419D01*
X198303884Y-144800990D02*
X198351503Y-144753371D01*
X198351503Y-144753371D02*
X198446741Y-144705752D01*
X198446741Y-144705752D02*
X198589598Y-144705752D01*
X198589598Y-144705752D02*
X198684836Y-144753371D01*
X198684836Y-144753371D02*
X198732455Y-144848609D01*
X198732455Y-144848609D02*
X198732455Y-145372419D01*
X199637217Y-145372419D02*
X199637217Y-144372419D01*
X199637217Y-145324800D02*
X199541979Y-145372419D01*
X199541979Y-145372419D02*
X199351503Y-145372419D01*
X199351503Y-145372419D02*
X199256265Y-145324800D01*
X199256265Y-145324800D02*
X199208646Y-145277180D01*
X199208646Y-145277180D02*
X199161027Y-145181942D01*
X199161027Y-145181942D02*
X199161027Y-144896228D01*
X199161027Y-144896228D02*
X199208646Y-144800990D01*
X199208646Y-144800990D02*
X199256265Y-144753371D01*
X199256265Y-144753371D02*
X199351503Y-144705752D01*
X199351503Y-144705752D02*
X199541979Y-144705752D01*
X199541979Y-144705752D02*
X199637217Y-144753371D01*
X108827694Y-126372419D02*
X109399122Y-126372419D01*
X109113408Y-127372419D02*
X109113408Y-126372419D01*
X109637218Y-126372419D02*
X110303884Y-127372419D01*
X110303884Y-126372419D02*
X109637218Y-127372419D01*
X187708646Y-144372419D02*
X188327693Y-144372419D01*
X188327693Y-144372419D02*
X187994360Y-144753371D01*
X187994360Y-144753371D02*
X188137217Y-144753371D01*
X188137217Y-144753371D02*
X188232455Y-144800990D01*
X188232455Y-144800990D02*
X188280074Y-144848609D01*
X188280074Y-144848609D02*
X188327693Y-144943847D01*
X188327693Y-144943847D02*
X188327693Y-145181942D01*
X188327693Y-145181942D02*
X188280074Y-145277180D01*
X188280074Y-145277180D02*
X188232455Y-145324800D01*
X188232455Y-145324800D02*
X188137217Y-145372419D01*
X188137217Y-145372419D02*
X187851503Y-145372419D01*
X187851503Y-145372419D02*
X187756265Y-145324800D01*
X187756265Y-145324800D02*
X187708646Y-145277180D01*
X189280074Y-145372419D02*
X188708646Y-145372419D01*
X188994360Y-145372419D02*
X188994360Y-144372419D01*
X188994360Y-144372419D02*
X188899122Y-144515276D01*
X188899122Y-144515276D02*
X188803884Y-144610514D01*
X188803884Y-144610514D02*
X188708646Y-144658133D01*
X162280074Y-37872419D02*
X161803884Y-37872419D01*
X161803884Y-37872419D02*
X161756265Y-38348609D01*
X161756265Y-38348609D02*
X161803884Y-38300990D01*
X161803884Y-38300990D02*
X161899122Y-38253371D01*
X161899122Y-38253371D02*
X162137217Y-38253371D01*
X162137217Y-38253371D02*
X162232455Y-38300990D01*
X162232455Y-38300990D02*
X162280074Y-38348609D01*
X162280074Y-38348609D02*
X162327693Y-38443847D01*
X162327693Y-38443847D02*
X162327693Y-38681942D01*
X162327693Y-38681942D02*
X162280074Y-38777180D01*
X162280074Y-38777180D02*
X162232455Y-38824800D01*
X162232455Y-38824800D02*
X162137217Y-38872419D01*
X162137217Y-38872419D02*
X161899122Y-38872419D01*
X161899122Y-38872419D02*
X161803884Y-38824800D01*
X161803884Y-38824800D02*
X161756265Y-38777180D01*
X163280074Y-38872419D02*
X162708646Y-38872419D01*
X162994360Y-38872419D02*
X162994360Y-37872419D01*
X162994360Y-37872419D02*
X162899122Y-38015276D01*
X162899122Y-38015276D02*
X162803884Y-38110514D01*
X162803884Y-38110514D02*
X162708646Y-38158133D01*
X107803884Y-110372419D02*
X107803884Y-109372419D01*
X107803884Y-109372419D02*
X108041979Y-109372419D01*
X108041979Y-109372419D02*
X108184836Y-109420038D01*
X108184836Y-109420038D02*
X108280074Y-109515276D01*
X108280074Y-109515276D02*
X108327693Y-109610514D01*
X108327693Y-109610514D02*
X108375312Y-109800990D01*
X108375312Y-109800990D02*
X108375312Y-109943847D01*
X108375312Y-109943847D02*
X108327693Y-110134323D01*
X108327693Y-110134323D02*
X108280074Y-110229561D01*
X108280074Y-110229561D02*
X108184836Y-110324800D01*
X108184836Y-110324800D02*
X108041979Y-110372419D01*
X108041979Y-110372419D02*
X107803884Y-110372419D01*
X109232455Y-110372419D02*
X109232455Y-109848609D01*
X109232455Y-109848609D02*
X109184836Y-109753371D01*
X109184836Y-109753371D02*
X109089598Y-109705752D01*
X109089598Y-109705752D02*
X108899122Y-109705752D01*
X108899122Y-109705752D02*
X108803884Y-109753371D01*
X109232455Y-110324800D02*
X109137217Y-110372419D01*
X109137217Y-110372419D02*
X108899122Y-110372419D01*
X108899122Y-110372419D02*
X108803884Y-110324800D01*
X108803884Y-110324800D02*
X108756265Y-110229561D01*
X108756265Y-110229561D02*
X108756265Y-110134323D01*
X108756265Y-110134323D02*
X108803884Y-110039085D01*
X108803884Y-110039085D02*
X108899122Y-109991466D01*
X108899122Y-109991466D02*
X109137217Y-109991466D01*
X109137217Y-109991466D02*
X109232455Y-109943847D01*
X109565789Y-109705752D02*
X109946741Y-109705752D01*
X109708646Y-109372419D02*
X109708646Y-110229561D01*
X109708646Y-110229561D02*
X109756265Y-110324800D01*
X109756265Y-110324800D02*
X109851503Y-110372419D01*
X109851503Y-110372419D02*
X109946741Y-110372419D01*
X110708646Y-110372419D02*
X110708646Y-109848609D01*
X110708646Y-109848609D02*
X110661027Y-109753371D01*
X110661027Y-109753371D02*
X110565789Y-109705752D01*
X110565789Y-109705752D02*
X110375313Y-109705752D01*
X110375313Y-109705752D02*
X110280075Y-109753371D01*
X110708646Y-110324800D02*
X110613408Y-110372419D01*
X110613408Y-110372419D02*
X110375313Y-110372419D01*
X110375313Y-110372419D02*
X110280075Y-110324800D01*
X110280075Y-110324800D02*
X110232456Y-110229561D01*
X110232456Y-110229561D02*
X110232456Y-110134323D01*
X110232456Y-110134323D02*
X110280075Y-110039085D01*
X110280075Y-110039085D02*
X110375313Y-109991466D01*
X110375313Y-109991466D02*
X110613408Y-109991466D01*
X110613408Y-109991466D02*
X110708646Y-109943847D01*
X226803884Y-111941746D02*
X227565789Y-111941746D01*
X227184836Y-112322699D02*
X227184836Y-111560794D01*
X226803884Y-113551690D02*
X227565789Y-113551690D01*
X226803884Y-115161634D02*
X227565789Y-115161634D01*
X227184836Y-115542587D02*
X227184836Y-114780682D01*
X226803884Y-116771578D02*
X227565789Y-116771578D01*
X226803884Y-118381522D02*
X227565789Y-118381522D01*
X227184836Y-118762475D02*
X227184836Y-118000570D01*
X226803884Y-119991466D02*
X227565789Y-119991466D01*
X109875313Y-117300990D02*
X109780075Y-117253371D01*
X109780075Y-117253371D02*
X109732456Y-117205752D01*
X109732456Y-117205752D02*
X109684837Y-117110514D01*
X109684837Y-117110514D02*
X109684837Y-117062895D01*
X109684837Y-117062895D02*
X109732456Y-116967657D01*
X109732456Y-116967657D02*
X109780075Y-116920038D01*
X109780075Y-116920038D02*
X109875313Y-116872419D01*
X109875313Y-116872419D02*
X110065789Y-116872419D01*
X110065789Y-116872419D02*
X110161027Y-116920038D01*
X110161027Y-116920038D02*
X110208646Y-116967657D01*
X110208646Y-116967657D02*
X110256265Y-117062895D01*
X110256265Y-117062895D02*
X110256265Y-117110514D01*
X110256265Y-117110514D02*
X110208646Y-117205752D01*
X110208646Y-117205752D02*
X110161027Y-117253371D01*
X110161027Y-117253371D02*
X110065789Y-117300990D01*
X110065789Y-117300990D02*
X109875313Y-117300990D01*
X109875313Y-117300990D02*
X109780075Y-117348609D01*
X109780075Y-117348609D02*
X109732456Y-117396228D01*
X109732456Y-117396228D02*
X109684837Y-117491466D01*
X109684837Y-117491466D02*
X109684837Y-117681942D01*
X109684837Y-117681942D02*
X109732456Y-117777180D01*
X109732456Y-117777180D02*
X109780075Y-117824800D01*
X109780075Y-117824800D02*
X109875313Y-117872419D01*
X109875313Y-117872419D02*
X110065789Y-117872419D01*
X110065789Y-117872419D02*
X110161027Y-117824800D01*
X110161027Y-117824800D02*
X110208646Y-117777180D01*
X110208646Y-117777180D02*
X110256265Y-117681942D01*
X110256265Y-117681942D02*
X110256265Y-117491466D01*
X110256265Y-117491466D02*
X110208646Y-117396228D01*
X110208646Y-117396228D02*
X110161027Y-117348609D01*
X110161027Y-117348609D02*
X110065789Y-117300990D01*
D11*
%TO.C,G\u002A\u002A\u002A*%
G36*
X185705892Y-38677963D02*
G01*
X185714302Y-38680378D01*
X185721882Y-38683955D01*
X185729490Y-38689336D01*
X185737985Y-38697164D01*
X185748227Y-38708081D01*
X185752303Y-38712659D01*
X185780927Y-38748316D01*
X185804840Y-38785157D01*
X185824147Y-38823441D01*
X185838951Y-38863430D01*
X185849356Y-38905384D01*
X185855467Y-38949565D01*
X185857056Y-38975489D01*
X185856625Y-39022196D01*
X185851912Y-39066635D01*
X185842872Y-39109001D01*
X185829464Y-39149488D01*
X185811644Y-39188289D01*
X185808184Y-39194710D01*
X185797918Y-39212082D01*
X185786251Y-39229666D01*
X185773682Y-39246883D01*
X185760711Y-39263154D01*
X185747836Y-39277898D01*
X185735556Y-39290535D01*
X185724370Y-39300488D01*
X185714778Y-39307174D01*
X185709278Y-39309601D01*
X185692394Y-39312163D01*
X185676117Y-39310152D01*
X185675248Y-39309905D01*
X185663429Y-39304058D01*
X185653166Y-39294523D01*
X185645288Y-39282459D01*
X185640624Y-39269028D01*
X185639709Y-39260181D01*
X185640677Y-39249324D01*
X185643953Y-39239356D01*
X185650090Y-39229157D01*
X185659644Y-39217608D01*
X185662138Y-39214904D01*
X185688166Y-39184152D01*
X185709540Y-39152411D01*
X185726468Y-39119288D01*
X185739163Y-39084392D01*
X185745392Y-39059887D01*
X185748386Y-39041413D01*
X185750324Y-39019906D01*
X185751188Y-38996890D01*
X185750962Y-38973890D01*
X185749628Y-38952429D01*
X185747171Y-38934033D01*
X185746809Y-38932149D01*
X185737190Y-38894782D01*
X185723702Y-38860125D01*
X185706070Y-38827635D01*
X185684020Y-38796772D01*
X185670321Y-38780747D01*
X185660270Y-38769370D01*
X185653147Y-38760486D01*
X185648381Y-38753154D01*
X185645400Y-38746434D01*
X185643634Y-38739385D01*
X185643091Y-38735918D01*
X185643132Y-38720748D01*
X185647736Y-38706998D01*
X185657040Y-38694290D01*
X185659264Y-38692046D01*
X185672154Y-38682281D01*
X185685857Y-38677303D01*
X185700659Y-38677025D01*
X185705892Y-38677963D01*
G37*
G36*
X185841858Y-38558242D02*
G01*
X185850177Y-38560488D01*
X185858337Y-38564896D01*
X185867324Y-38572018D01*
X185878120Y-38582407D01*
X185880125Y-38584455D01*
X185903923Y-38610944D01*
X185927351Y-38640877D01*
X185949406Y-38672835D01*
X185969088Y-38705400D01*
X185979764Y-38725484D01*
X185995667Y-38760771D01*
X186009798Y-38799262D01*
X186021696Y-38839441D01*
X186030896Y-38879787D01*
X186035758Y-38909311D01*
X186037525Y-38926163D01*
X186038847Y-38946469D01*
X186039714Y-38969016D01*
X186040115Y-38992592D01*
X186040041Y-39015982D01*
X186039482Y-39037974D01*
X186038427Y-39057354D01*
X186037106Y-39071079D01*
X186027926Y-39125315D01*
X186014288Y-39177597D01*
X185996245Y-39227816D01*
X185973847Y-39275862D01*
X185947146Y-39321628D01*
X185916194Y-39365002D01*
X185881042Y-39405877D01*
X185877437Y-39409677D01*
X185862944Y-39423224D01*
X185849464Y-39432257D01*
X185836499Y-39436924D01*
X185823549Y-39437374D01*
X185810113Y-39433755D01*
X185804686Y-39431299D01*
X185792043Y-39422459D01*
X185782778Y-39410735D01*
X185777197Y-39397046D01*
X185775607Y-39382311D01*
X185778312Y-39367448D01*
X185781175Y-39360640D01*
X185784323Y-39355928D01*
X185789987Y-39348803D01*
X185797264Y-39340364D01*
X185802738Y-39334368D01*
X185834874Y-39296706D01*
X185862456Y-39257288D01*
X185885511Y-39216048D01*
X185904064Y-39172920D01*
X185918142Y-39127837D01*
X185927769Y-39080731D01*
X185932973Y-39031537D01*
X185933998Y-38996772D01*
X185932027Y-38946832D01*
X185926016Y-38899448D01*
X185915843Y-38854307D01*
X185901385Y-38811094D01*
X185882520Y-38769494D01*
X185859126Y-38729192D01*
X185831081Y-38689875D01*
X185800664Y-38653859D01*
X185790502Y-38641636D01*
X185783934Y-38630964D01*
X185780422Y-38620753D01*
X185779431Y-38610570D01*
X185781706Y-38595831D01*
X185788079Y-38582469D01*
X185797784Y-38571251D01*
X185810056Y-38562942D01*
X185824129Y-38558307D01*
X185832399Y-38557603D01*
X185841858Y-38558242D01*
G37*
G36*
X186003073Y-38422875D02*
G01*
X186009266Y-38424663D01*
X186014712Y-38427257D01*
X186020453Y-38431390D01*
X186027529Y-38437796D01*
X186035582Y-38445791D01*
X186061741Y-38474420D01*
X186087757Y-38506982D01*
X186113019Y-38542529D01*
X186136913Y-38580115D01*
X186158829Y-38618792D01*
X186178152Y-38657615D01*
X186189657Y-38684000D01*
X186210383Y-38741055D01*
X186226711Y-38799926D01*
X186238622Y-38860230D01*
X186246099Y-38921582D01*
X186249123Y-38983600D01*
X186247677Y-39045898D01*
X186241742Y-39108095D01*
X186231301Y-39169805D01*
X186216336Y-39230646D01*
X186215349Y-39234073D01*
X186198650Y-39284068D01*
X186177647Y-39334315D01*
X186152785Y-39383868D01*
X186124514Y-39431779D01*
X186115002Y-39446337D01*
X186103684Y-39462634D01*
X186091159Y-39479614D01*
X186077905Y-39496721D01*
X186064397Y-39513397D01*
X186051111Y-39529088D01*
X186038522Y-39543237D01*
X186027106Y-39555287D01*
X186017339Y-39564684D01*
X186009697Y-39570871D01*
X186007097Y-39572450D01*
X185994116Y-39577028D01*
X185980087Y-39578653D01*
X185968710Y-39577389D01*
X185955151Y-39571624D01*
X185943985Y-39562322D01*
X185935659Y-39550403D01*
X185930619Y-39536787D01*
X185929312Y-39522394D01*
X185932186Y-39508144D01*
X185933518Y-39504911D01*
X185936921Y-39499304D01*
X185942895Y-39491241D01*
X185950605Y-39481792D01*
X185959213Y-39472024D01*
X185959399Y-39471822D01*
X185997844Y-39426669D01*
X186031700Y-39379826D01*
X186061020Y-39331179D01*
X186085857Y-39280611D01*
X186106265Y-39228008D01*
X186122297Y-39173253D01*
X186134007Y-39116232D01*
X186138688Y-39083334D01*
X186140653Y-39062428D01*
X186141999Y-39038241D01*
X186142727Y-39012058D01*
X186142836Y-38985165D01*
X186142326Y-38958848D01*
X186141196Y-38934391D01*
X186139447Y-38913080D01*
X186138721Y-38906860D01*
X186129087Y-38848342D01*
X186115427Y-38792535D01*
X186097635Y-38739203D01*
X186075604Y-38688113D01*
X186049228Y-38639030D01*
X186018401Y-38591719D01*
X185983015Y-38545946D01*
X185965477Y-38525678D01*
X185953661Y-38511867D01*
X185945260Y-38500375D01*
X185939933Y-38490375D01*
X185937336Y-38481038D01*
X185937128Y-38471536D01*
X185938874Y-38461415D01*
X185942122Y-38451980D01*
X185947571Y-38443633D01*
X185953323Y-38437372D01*
X185966064Y-38427346D01*
X185979687Y-38422074D01*
X185994634Y-38421427D01*
X186003073Y-38422875D01*
G37*
G36*
X185502054Y-38351161D02*
G01*
X185514767Y-38356825D01*
X185524276Y-38366144D01*
X185530450Y-38379019D01*
X185531682Y-38383786D01*
X185531966Y-38387558D01*
X185532236Y-38395974D01*
X185532490Y-38408776D01*
X185532728Y-38425706D01*
X185532951Y-38446507D01*
X185533159Y-38470920D01*
X185533352Y-38498688D01*
X185533529Y-38529552D01*
X185533690Y-38563255D01*
X185533837Y-38599539D01*
X185533968Y-38638146D01*
X185534083Y-38678818D01*
X185534183Y-38721297D01*
X185534268Y-38765325D01*
X185534337Y-38810645D01*
X185534391Y-38856998D01*
X185534430Y-38904126D01*
X185534453Y-38951772D01*
X185534461Y-38999678D01*
X185534453Y-39047585D01*
X185534430Y-39095236D01*
X185534392Y-39142373D01*
X185534338Y-39188738D01*
X185534269Y-39234073D01*
X185534185Y-39278120D01*
X185534085Y-39320622D01*
X185533969Y-39361320D01*
X185533839Y-39399956D01*
X185533693Y-39436273D01*
X185533531Y-39470013D01*
X185533354Y-39500917D01*
X185533162Y-39528728D01*
X185532954Y-39553188D01*
X185532731Y-39574039D01*
X185532493Y-39591023D01*
X185532239Y-39603882D01*
X185531970Y-39612358D01*
X185531685Y-39616194D01*
X185531682Y-39616213D01*
X185526596Y-39630196D01*
X185518162Y-39640623D01*
X185506493Y-39647407D01*
X185491702Y-39650465D01*
X185486004Y-39650641D01*
X185471813Y-39650534D01*
X185426469Y-39612392D01*
X185412689Y-39600812D01*
X185396104Y-39586893D01*
X185377675Y-39571441D01*
X185358359Y-39555258D01*
X185339117Y-39539148D01*
X185320907Y-39523916D01*
X185317398Y-39520983D01*
X185282180Y-39491542D01*
X185248531Y-39463405D01*
X185216719Y-39436798D01*
X185187012Y-39411943D01*
X185159675Y-39389064D01*
X185134977Y-39368385D01*
X185113185Y-39350129D01*
X185094566Y-39334521D01*
X185079388Y-39321783D01*
X185076666Y-39319497D01*
X185039369Y-39288162D01*
X184911222Y-39287466D01*
X184783074Y-39286770D01*
X184772946Y-39280966D01*
X184764321Y-39274211D01*
X184757351Y-39265606D01*
X184757015Y-39265034D01*
X184751211Y-39254906D01*
X184751211Y-39003676D01*
X184751214Y-38963037D01*
X184751225Y-38927010D01*
X184751250Y-38895305D01*
X184751295Y-38867632D01*
X184751364Y-38843701D01*
X184751462Y-38823222D01*
X184751595Y-38805905D01*
X184751768Y-38791461D01*
X184751986Y-38779598D01*
X184752255Y-38770027D01*
X184752579Y-38762457D01*
X184752963Y-38756600D01*
X184753414Y-38752165D01*
X184753936Y-38748862D01*
X184754534Y-38746400D01*
X184755213Y-38744491D01*
X184755883Y-38743036D01*
X184760979Y-38735714D01*
X184768047Y-38728832D01*
X184770408Y-38727104D01*
X184780260Y-38720582D01*
X184907396Y-38719885D01*
X185034533Y-38719188D01*
X185122043Y-38645206D01*
X185154735Y-38617569D01*
X185187047Y-38590255D01*
X185218708Y-38563493D01*
X185249446Y-38537513D01*
X185278989Y-38512544D01*
X185307065Y-38488816D01*
X185333404Y-38466558D01*
X185357733Y-38446001D01*
X185379780Y-38427374D01*
X185399274Y-38410906D01*
X185415944Y-38396827D01*
X185429516Y-38385366D01*
X185439721Y-38376754D01*
X185442661Y-38374274D01*
X185472334Y-38349252D01*
X185486265Y-38349252D01*
X185502054Y-38351161D01*
G37*
%TD*%
M02*
