M48
; DRILL file {KiCad 9.0.1} date 2025-06-05T21:30:55-0400
; FORMAT={-:-/ absolute / metric / decimal}
; #@! TF.CreationDate,2025-06-05T21:30:55-04:00
; #@! TF.GenerationSoftware,Kicad,Pcbnew,9.0.1
; #@! TF.FileFunction,Plated,1,2,PTH
FMAT,2
METRIC
; #@! TA.AperFunction,Plated,PTH,ViaDrill
T1C0.300
; #@! TA.AperFunction,Plated,PTH,ViaDrill
T2C0.500
; #@! TA.AperFunction,Plated,PTH,ViaDrill
T3C1.000
; #@! TA.AperFunction,Plated,PTH,ViaDrill
T4C1.500
; #@! TA.AperFunction,Plated,PTH,ViaDrill
T5C3.000
%
G90
G05
T1
X106.5Y-115.5
X108.5Y-38.0
X108.5Y-41.0
X116.5Y-38.0
X116.5Y-41.0
X119.5Y-38.5
X120.5Y-130.0
X121.5Y-38.5
X122.0Y-88.5
X122.0Y-129.0
X123.0Y-87.5
X123.25Y-127.75
X125.0Y-126.5
X127.5Y-88.5
X135.0Y-87.5
X139.0Y-87.5
X170.0Y-48.5
X172.5Y-53.5
X172.5Y-62.5
X172.5Y-123.5
X172.75Y-48.0
X173.75Y-61.75
X174.5Y-62.5
X174.5Y-87.5
X174.5Y-121.0
X183.5Y-49.5
X183.5Y-52.25
X184.25Y-46.5
X184.25Y-48.0
X186.75Y-46.5
X186.75Y-48.0
X187.5Y-49.5
X188.0Y-52.25
X190.75Y-61.25
X192.5Y-63.0
X214.5Y-78.0
X214.5Y-113.0
T2
X174.5Y-49.5
X174.5Y-52.5
X182.5Y-49.5
X182.5Y-52.5
T3
X106.5Y-47.5
X106.5Y-49.5
X106.5Y-54.0
X106.5Y-56.5
X106.5Y-68.5
X106.5Y-70.5
X106.5Y-72.5
X106.5Y-74.5
X106.5Y-76.5
X106.5Y-78.5
X106.5Y-80.5
X106.5Y-95.0
X106.5Y-97.5
X106.5Y-102.5
X106.5Y-105.0
X106.5Y-110.0
X106.5Y-112.5
X112.0Y-65.5
X112.0Y-68.0
X112.0Y-70.5
X112.0Y-73.0
X112.0Y-75.5
X112.0Y-78.0
X112.0Y-80.5
X112.0Y-83.0
X112.0Y-85.5
X112.0Y-90.0
X112.0Y-92.5
X112.0Y-95.0
X112.0Y-97.5
X112.0Y-100.0
X112.0Y-102.5
X112.0Y-105.0
X112.0Y-107.5
X112.0Y-110.0
X112.0Y-112.5
X112.0Y-117.0
X112.0Y-119.5
X112.0Y-122.0
X112.0Y-124.5
X112.0Y-127.0
X112.0Y-129.5
X112.0Y-132.0
X112.0Y-134.5
X112.0Y-137.0
X112.0Y-139.5
X119.75Y-36.75
X119.75Y-41.0
X119.75Y-43.5
X122.25Y-36.75
X122.25Y-41.0
X122.25Y-43.5
X124.75Y-36.75
X124.75Y-41.0
X124.75Y-43.5
X127.25Y-36.75
X127.25Y-41.0
X127.25Y-43.5
X129.75Y-36.75
X129.75Y-41.0
X129.75Y-43.5
X132.25Y-36.75
X132.25Y-41.0
X132.25Y-43.5
X134.75Y-41.0
X134.75Y-43.5
X137.25Y-41.0
X137.25Y-43.5
X139.75Y-41.0
X139.75Y-43.5
X142.25Y-41.0
X142.25Y-43.5
X144.75Y-36.75
X144.75Y-41.0
X144.75Y-43.5
X147.25Y-36.75
X147.25Y-41.0
X147.25Y-43.5
X149.75Y-36.75
X149.75Y-41.0
X149.75Y-43.5
X152.25Y-36.75
X152.25Y-41.0
X152.25Y-43.5
X154.75Y-36.75
X154.75Y-41.0
X154.75Y-43.5
X157.25Y-36.75
X157.25Y-41.0
X157.25Y-43.5
X159.75Y-41.0
X159.75Y-43.5
X162.25Y-41.0
X162.25Y-43.5
X162.5Y-36.75
X165.0Y-36.75
X167.476Y-36.774
X169.0Y-64.5
X169.0Y-67.0
X169.0Y-69.5
X169.0Y-72.0
X169.0Y-74.5
X169.0Y-77.0
X169.0Y-79.5
X169.0Y-82.0
X169.0Y-84.5
X169.0Y-89.0
X169.0Y-91.5
X169.0Y-94.0
X169.0Y-96.5
X169.0Y-99.0
X169.0Y-101.5
X169.0Y-104.0
X169.0Y-106.5
X169.0Y-109.0
X169.0Y-116.0
X169.0Y-118.5
X169.0Y-121.0
X169.0Y-123.5
X169.0Y-126.0
X169.0Y-128.5
X169.0Y-131.0
X169.0Y-133.5
X170.0Y-36.75
X182.5Y-36.5
X183.5Y-146.5
X184.25Y-36.5
X186.0Y-146.5
X186.75Y-36.5
X188.5Y-36.5
X188.5Y-146.5
X190.0Y-101.5
X190.0Y-104.0
X190.0Y-106.5
X190.0Y-109.0
X191.0Y-146.5
X193.5Y-146.5
X194.25Y-47.25
X194.25Y-49.75
X194.25Y-52.25
X194.25Y-54.75
X194.25Y-57.25
X194.25Y-59.75
X194.25Y-62.25
X194.25Y-64.75
X196.0Y-146.5
X198.5Y-146.5
X212.75Y-47.25
X212.75Y-49.75
X212.75Y-52.25
X212.75Y-54.75
X212.75Y-57.25
X212.75Y-59.75
X212.75Y-62.25
X212.75Y-64.75
X220.0Y-71.25
X220.0Y-73.75
X222.5Y-71.25
X222.5Y-73.75
X225.0Y-62.5
X225.0Y-65.0
X225.0Y-71.25
X225.0Y-73.75
X225.0Y-111.0
X225.0Y-113.0
X225.0Y-115.0
X225.0Y-117.0
X225.0Y-119.0
X225.0Y-121.0
T4
X227.5Y-130.5
X227.5Y-134.0
T5
X116.5Y-60.5
X116.5Y-143.5
X164.5Y-61.5
X164.5Y-136.5
X227.0Y-37.0
X227.0Y-146.0
M30
